{
  "source": "C:\\Users\\Peter\\Desktop\\stuff\\MIUN\\quantitative_research\\video_compression\\videos\\UVG\\HoneyBee_1920x1080_120fps_420_8bit_YUV.y4m",
  "output": "C:\\Users\\Peter\\Desktop\\stuff\\MIUN\\quantitative_research\\video_compression\\compressed_videos\\UVG\\av1\\2.5\\HoneyBee_1920x1080_120fps_420_8bit_YUV_av1.mkv",
  "codec": "av1",
  "ok": "[yuv4mpegpipe @ 000001dadfef5380] Stream #0: not enough frames to estimate rate; consider increasing probesize\nInput #0, yuv4mpegpipe, from 'C:\\Users\\Peter\\Desktop\\stuff\\MIUN\\quantitative_research\\video_compression\\videos\\UVG\\HoneyBee_1920x1080_120fps_420_8bit_YUV.y4m':\n  Duration: 00:00:05.00, start: 0.000000, bitrate: 2985989 kb/s\n  Stream #0:0: Video: rawvideo (I420 / 0x30323449), yuv420p(progressive), 1920x1080, 120 fps, 120 tbr, 120 tbn\n[out#0/matroska @ 000001dadfef90c0] Codec AVOption b:a (set bitrate (in bits/s)) has not been used for any stream. The most likely reason is either wrong type (e.g. a video option with no video streams) or that it is a private option of some decoder which was not actually used for any stream.\nStream mapping:\n  Stream #0:0 -> #0:0 (rawvideo (native) -> av1 (libsvtav1))\nPress [q] to stop, [?] for help\nSvt[info]: -------------------------------------------\nSvt[info]: SVT [version]:\tSVT-AV1 Encoder Lib v3.1.0-19-g6ecfe8ec\nSvt[info]: SVT [build]  :\tGCC 15.2.0\t 64 bit\nSvt[info]: LIB Build date: Aug 17 2025 11:37:13\nSvt[info]: -------------------------------------------\n[libsvtav1 @ 000001dadfefc1c0] Specified chroma sample location center is unsupported on the AV1 bit stream level. Usage of a container that allows passing this information - such as Matroska - is recommended.\nSvt[info]: Level of Parallelism: 5\nSvt[info]: Number of PPCS 93\nSvt[info]: [asm level on system : up to avx2]\nSvt[info]: [asm level selected : up to avx2]\nSvt[info]: -------------------------------------------\nSvt[info]: SVT [config]: main profile\ttier (auto)\tlevel (auto)\nSvt[info]: SVT [config]: width / height / fps numerator / fps denominator \t\t: 1920 / 1080 / 120 / 1\nSvt[info]: SVT [config]: bit-depth / color format \t\t\t\t\t: 8 / YUV420\nSvt[info]: SVT [config]: preset / tune / pred struct \t\t\t\t\t: 4 / PSNR / random access\nSvt[info]: SVT [config]: gop size / mini-gop size / key-frame type \t\t\t: 641 / 16 / key frame\nSvt[info]: SVT [config]: BRC mode / target bitrate (kbps)\t\t\t\t: VBR / 2500 \nSvt[info]: SVT [config]: AQ mode / Variance Boost \t\t\t\t\t: 2 / 0\nSvt[info]: SVT [config]: sharpness / luminance-based QP bias \t\t\t\t: 0 / 0\nSvt[info]: SVT [config]: QP scale compress strength \t\t\t\t\t: 0\nSvt[info]: -------------------------------------------\nOutput #0, matroska, to 'C:\\Users\\Peter\\Desktop\\stuff\\MIUN\\quantitative_research\\video_compression\\compressed_videos\\UVG\\av1\\2.5\\HoneyBee_1920x1080_120fps_420_8bit_YUV_av1.mkv':\n  Metadata:\n    encoder         : Lavf62.3.100\n  Stream #0:0: Video: av1 (AV01 / 0x31305641), yuv420p(tv, progressive), 1920x1080, q=2-31, 2500 kb/s, 120 fps, 1k tbn\n    Metadata:\n      encoder         : Lavc62.11.100 libsvtav1\n    Side data:\n      cpb: bitrate max/min/avg: 0/0/2500000 buffer size: 2500000 vbv_delay: N/A\nframe=    0 fps=0.0 q=0.0 size=       0KiB time=N/A bitrate=N/A speed=N/A elapsed=0:00:01.67    \nframe=    0 fps=0.0 q=0.0 size=       0KiB time=N/A bitrate=N/A speed=N/A elapsed=0:00:02.57    \nframe=    0 fps=0.0 q=0.0 size=       0KiB time=N/A bitrate=N/A speed=N/A elapsed=0:00:03.17    \nframe=    0 fps=0.0 q=0.0 size=       0KiB time=N/A bitrate=N/A speed=N/A elapsed=0:00:03.71    \nframe=    0 fps=0.0 q=0.0 size=       0KiB time=N/A bitrate=N/A speed=N/A elapsed=0:00:04.30    \nframe=    0 fps=0.0 q=0.0 size=       0KiB time=N/A bitrate=N/A speed=N/A elapsed=0:00:04.87    \nframe=    0 fps=0.0 q=0.0 size=       0KiB time=N/A bitrate=N/A speed=N/A elapsed=0:00:05.44    \nframe=    0 fps=0.0 q=0.0 size=       0KiB time=N/A bitrate=N/A speed=N/A elapsed=0:00:06.01    \nframe=    0 fps=0.0 q=0.0 size=       0KiB time=N/A bitrate=N/A speed=N/A elapsed=0:00:06.59    \nframe=    0 fps=0.0 q=0.0 size=       0KiB time=N/A bitrate=N/A speed=N/A elapsed=0:00:07.17    \nframe=    0 fps=0.0 q=0.0 size=       0KiB time=N/A bitrate=N/A speed=N/A elapsed=0:00:07.73    \nframe=    0 fps=0.0 q=0.0 size=       0KiB time=N/A bitrate=N/A speed=N/A elapsed=0:00:08.30    \nframe=    0 fps=0.0 q=0.0 size=       0KiB time=N/A bitrate=N/A speed=N/A elapsed=0:00:08.87    \nframe=    0 fps=0.0 q=0.0 size=       0KiB time=N/A bitrate=N/A speed=N/A elapsed=0:00:09.45    \nframe=    0 fps=0.0 q=0.0 size=       0KiB time=N/A bitrate=N/A speed=N/A elapsed=0:00:10.02    \nframe=    0 fps=0.0 q=0.0 size=       0KiB time=N/A bitrate=N/A speed=N/A elapsed=0:00:10.58    \nframe=    0 fps=0.0 q=0.0 size=       0KiB time=N/A bitrate=N/A speed=N/A elapsed=0:00:11.15    \nframe=    0 fps=0.0 q=0.0 size=       0KiB time=N/A bitrate=N/A speed=N/A elapsed=0:00:11.73    \nframe=    0 fps=0.0 q=0.0 size=       0KiB time=N/A bitrate=N/A speed=N/A elapsed=0:00:12.31    \nframe=    0 fps=0.0 q=0.0 size=       0KiB time=N/A bitrate=N/A speed=N/A elapsed=0:00:12.86    \nframe=    0 fps=0.0 q=0.0 size=       0KiB time=N/A bitrate=N/A speed=N/A elapsed=0:00:13.46    \nframe=    0 fps=0.0 q=0.0 size=       0KiB time=N/A bitrate=N/A speed=N/A elapsed=0:00:14.05    \nframe=    0 fps=0.0 q=0.0 size=       0KiB time=N/A bitrate=N/A speed=N/A elapsed=0:00:14.64    \nframe=    0 fps=0.0 q=0.0 size=       0KiB time=N/A bitrate=N/A speed=N/A elapsed=0:00:15.22    \nframe=    0 fps=0.0 q=0.0 size=       0KiB time=N/A bitrate=N/A speed=N/A elapsed=0:00:15.80    \nframe=    0 fps=0.0 q=0.0 size=       0KiB time=N/A bitrate=N/A speed=N/A elapsed=0:00:16.39    \nframe=    0 fps=0.0 q=0.0 size=       0KiB time=N/A bitrate=N/A speed=N/A elapsed=0:00:16.98    \nframe=    0 fps=0.0 q=0.0 size=       0KiB time=N/A bitrate=N/A speed=N/A elapsed=0:00:17.56    \nframe=    0 fps=0.0 q=0.0 size=       0KiB time=N/A bitrate=N/A speed=N/A elapsed=0:00:18.14    \nframe=    0 fps=0.0 q=0.0 size=       0KiB time=N/A bitrate=N/A speed=N/A elapsed=0:00:18.71    \nframe=    0 fps=0.0 q=0.0 size=       0KiB time=N/A bitrate=N/A speed=N/A elapsed=0:00:19.28    \nframe=    0 fps=0.0 q=0.0 size=       0KiB time=N/A bitrate=N/A speed=N/A elapsed=0:00:19.83    \nframe=    0 fps=0.0 q=0.0 size=       0KiB time=N/A bitrate=N/A speed=N/A elapsed=0:00:20.40    \nframe=    1 fps=0.0 q=13.0 size=       1KiB time=00:00:00.00 bitrate=N/A speed=   0x elapsed=0:00:20.96    \nframe=    1 fps=0.0 q=13.0 size=       1KiB time=00:00:00.00 bitrate=N/A speed=   0x elapsed=0:00:21.55    \nframe=    1 fps=0.0 q=13.0 size=       1KiB time=00:00:00.00 bitrate=N/A speed=   0x elapsed=0:00:22.11    \nframe=    1 fps=0.0 q=13.0 size=       1KiB time=00:00:00.00 bitrate=N/A speed=   0x elapsed=0:00:22.68    \nframe=    2 fps=0.1 q=49.0 size=       1KiB time=00:00:00.00 bitrate= 537.6kbits/s speed=0.000358x elapsed=0:00:23.24    \nframe=    6 fps=0.3 q=47.0 size=       1KiB time=00:00:00.04 bitrate= 107.5kbits/s speed=0.00175x elapsed=0:00:23.81    \nframe=    8 fps=0.3 q=44.0 size=       1KiB time=00:00:00.05 bitrate=  76.8kbits/s speed=0.00239x elapsed=0:00:24.37    \nframe=   11 fps=0.4 q=43.0 size=       1KiB time=00:00:00.08 bitrate=  53.8kbits/s speed=0.00334x elapsed=0:00:24.94    \nframe=   13 fps=0.5 q=44.0 size=       1KiB time=00:00:00.10 bitrate=  44.8kbits/s speed=0.00392x elapsed=0:00:25.50    \nframe=   14 fps=0.5 q=42.0 size=       1KiB time=00:00:00.10 bitrate=  41.4kbits/s speed=0.00416x elapsed=0:00:26.05    \nframe=   15 fps=0.6 q=43.0 size=       1KiB time=00:00:00.11 bitrate=  38.4kbits/s speed=0.00439x elapsed=0:00:26.59    \nframe=   17 fps=0.6 q=32.0 size=       1KiB time=00:00:00.13 bitrate=  33.6kbits/s speed=0.00491x elapsed=0:00:27.16    \nframe=   19 fps=0.7 q=37.0 size=       1KiB time=00:00:00.15 bitrate=  29.9kbits/s speed=0.00541x elapsed=0:00:27.71    \nframe=   22 fps=0.8 q=38.0 size=       1KiB time=00:00:00.17 bitrate=  25.6kbits/s speed=0.00619x elapsed=0:00:28.26    \nframe=   23 fps=0.8 q=38.0 size=       1KiB time=00:00:00.18 bitrate=  24.4kbits/s speed=0.00636x elapsed=0:00:28.81    \nframe=   25 fps=0.9 q=35.0 size=       1KiB time=00:00:00.20 bitrate=  22.4kbits/s speed=0.00681x elapsed=0:00:29.37    \nframe=   28 fps=0.9 q=36.0 size=       1KiB time=00:00:00.21 bitrate=  20.7kbits/s speed=0.00724x elapsed=0:00:29.92    \nframe=   30 fps=1.0 q=34.0 size=       1KiB time=00:00:00.24 bitrate=  18.5kbits/s speed=0.00793x elapsed=0:00:30.47    \nframe=   31 fps=1.0 q=35.0 size=       1KiB time=00:00:00.25 bitrate=  17.9kbits/s speed=0.00806x elapsed=0:00:31.03    \nframe=   31 fps=1.0 q=35.0 size=       1KiB time=00:00:00.25 bitrate=  17.9kbits/s speed=0.00791x elapsed=0:00:31.62    \nframe=   32 fps=1.0 q=35.0 size=       1KiB time=00:00:00.25 bitrate=  17.3kbits/s speed=0.00802x elapsed=0:00:32.20    \nframe=   32 fps=1.0 q=35.0 size=       1KiB time=00:00:00.25 bitrate=  17.3kbits/s speed=0.00788x elapsed=0:00:32.77    \nframe=   34 fps=1.0 q=29.0 size=       1KiB time=00:00:00.26 bitrate=  16.8kbits/s speed=0.008x elapsed=0:00:33.34    \nframe=   34 fps=1.0 q=29.0 size=       1KiB time=00:00:00.27 bitrate=  16.3kbits/s speed=0.00811x elapsed=0:00:33.91    \nframe=   35 fps=1.0 q=29.0 size=       1KiB time=00:00:00.28 bitrate=  15.8kbits/s speed=0.00821x elapsed=0:00:34.51    \nframe=   35 fps=1.0 q=29.0 size=       1KiB time=00:00:00.28 bitrate=  15.8kbits/s speed=0.00807x elapsed=0:00:35.11    \nframe=   36 fps=1.0 q=29.0 size=       1KiB time=00:00:00.29 bitrate=  15.4kbits/s speed=0.00817x elapsed=0:00:35.69    \nframe=   37 fps=1.0 q=28.0 size=       1KiB time=00:00:00.30 bitrate=  14.9kbits/s speed=0.00827x elapsed=0:00:36.27    \nframe=   37 fps=1.0 q=28.0 size=       1KiB time=00:00:00.30 bitrate=  14.9kbits/s speed=0.00814x elapsed=0:00:36.84    \nframe=   39 fps=1.0 q=29.0 size=       1KiB time=00:00:00.31 bitrate=  14.1kbits/s speed=0.00845x elapsed=0:00:37.45    \nframe=   39 fps=1.0 q=29.0 size=       1KiB time=00:00:00.31 bitrate=  14.1kbits/s speed=0.00833x elapsed=0:00:38.02    \nframe=   40 fps=1.0 q=29.0 size=       1KiB time=00:00:00.32 bitrate=  13.8kbits/s speed=0.00842x elapsed=0:00:38.58    \nframe=   40 fps=1.0 q=29.0 size=       1KiB time=00:00:00.32 bitrate=  13.8kbits/s speed=0.0083x elapsed=0:00:39.15    \nframe=   40 fps=1.0 q=29.0 size=       1KiB time=00:00:00.32 bitrate=  13.8kbits/s speed=0.00818x elapsed=0:00:39.74    \nframe=   40 fps=1.0 q=29.0 size=       1KiB time=00:00:00.32 bitrate=  13.8kbits/s speed=0.00806x elapsed=0:00:40.32    \nframe=   41 fps=1.0 q=26.0 size=       1KiB time=00:00:00.33 bitrate=  13.4kbits/s speed=0.00815x elapsed=0:00:40.89    \nframe=   42 fps=1.0 q=26.0 size=       1KiB time=00:00:00.34 bitrate=  13.1kbits/s speed=0.00824x elapsed=0:00:41.47    \nframe=   43 fps=1.0 q=27.0 size=       1KiB time=00:00:00.35 bitrate=  12.8kbits/s speed=0.00832x elapsed=0:00:42.04    \nframe=   43 fps=1.0 q=27.0 size=       1KiB time=00:00:00.35 bitrate=  12.8kbits/s speed=0.00821x elapsed=0:00:42.61    \nframe=   43 fps=1.0 q=27.0 size=       1KiB time=00:00:00.35 bitrate=  12.8kbits/s speed=0.00811x elapsed=0:00:43.17    \nframe=   43 fps=1.0 q=27.0 size=       1KiB time=00:00:00.35 bitrate=  12.8kbits/s speed=0.008x elapsed=0:00:43.76    \nframe=   44 fps=1.0 q=26.0 size=       1KiB time=00:00:00.35 bitrate=  12.5kbits/s speed=0.00808x elapsed=0:00:44.33    \nframe=   45 fps=1.0 q=27.0 size=       1KiB time=00:00:00.36 bitrate=  12.2kbits/s speed=0.00816x elapsed=0:00:44.91    \nframe=   47 fps=1.0 q=26.0 size=       1KiB time=00:00:00.38 bitrate=  11.7kbits/s speed=0.00843x elapsed=0:00:45.48    \nframe=   47 fps=1.0 q=26.0 size=       1KiB time=00:00:00.38 bitrate=  11.7kbits/s speed=0.00833x elapsed=0:00:46.03    \nframe=   47 fps=1.0 q=26.0 size=       1KiB time=00:00:00.38 bitrate=  11.7kbits/s speed=0.00823x elapsed=0:00:46.58    \nframe=   48 fps=1.0 q=26.0 size=       1KiB time=00:00:00.38 bitrate=  11.7kbits/s speed=0.00813x elapsed=0:00:47.14    \nframe=   49 fps=1.0 q=16.0 size=       1KiB time=00:00:00.40 bitrate=  11.2kbits/s speed=0.00838x elapsed=0:00:47.73    \nframe=   50 fps=1.0 q=25.0 size=       1KiB time=00:00:00.40 bitrate=  11.2kbits/s speed=0.00828x elapsed=0:00:48.30    \nframe=   50 fps=1.0 q=25.0 size=       1KiB time=00:00:00.40 bitrate=  11.0kbits/s speed=0.00835x elapsed=0:00:48.87    \nframe=   51 fps=1.0 q=24.0 size=       1KiB time=00:00:00.41 bitrate=  10.8kbits/s speed=0.00843x elapsed=0:00:49.44    \nframe=   51 fps=1.0 q=24.0 size=       1KiB time=00:00:00.41 bitrate=  10.8kbits/s speed=0.00833x elapsed=0:00:50.00    \nframe=   51 fps=1.0 q=24.0 size=       1KiB time=00:00:00.41 bitrate=  10.8kbits/s speed=0.00824x elapsed=0:00:50.57    \nframe=   51 fps=1.0 q=24.0 size=       1KiB time=00:00:00.41 bitrate=  10.8kbits/s speed=0.00815x elapsed=0:00:51.15    \nframe=   51 fps=1.0 q=24.0 size=       1KiB time=00:00:00.41 bitrate=  10.8kbits/s speed=0.00805x elapsed=0:00:51.73    \nframe=   51 fps=1.0 q=24.0 size=       1KiB time=00:00:00.41 bitrate=  10.8kbits/s speed=0.00797x elapsed=0:00:52.29    \nframe=   52 fps=1.0 q=25.0 size=       1KiB time=00:00:00.42 bitrate=  10.5kbits/s speed=0.00804x elapsed=0:00:52.86    \nframe=   53 fps=1.0 q=23.0 size=       1KiB time=00:00:00.43 bitrate=  10.3kbits/s speed=0.00811x elapsed=0:00:53.41    \nframe=   54 fps=1.0 q=23.0 size=       1KiB time=00:00:00.44 bitrate=  10.1kbits/s speed=0.00818x elapsed=0:00:53.98    \nframe=   54 fps=1.0 q=23.0 size=       1KiB time=00:00:00.44 bitrate=  10.1kbits/s speed=0.00809x elapsed=0:00:54.56    \nframe=   54 fps=1.0 q=23.0 size=       1KiB time=00:00:00.44 bitrate=  10.1kbits/s speed=0.00801x elapsed=0:00:55.11    \nframe=   54 fps=1.0 q=23.0 size=       1KiB time=00:00:00.44 bitrate=  10.1kbits/s speed=0.00793x elapsed=0:00:55.68    \nframe=   55 fps=1.0 q=20.0 size=       1KiB time=00:00:00.45 bitrate=  10.0kbits/s speed=0.008x elapsed=0:00:56.26    \nframe=   55 fps=1.0 q=20.0 size=       1KiB time=00:00:00.45 bitrate=  10.0kbits/s speed=0.00791x elapsed=0:00:56.88    \nframe=   55 fps=1.0 q=20.0 size=       1KiB time=00:00:00.45 bitrate=  10.0kbits/s speed=0.00783x elapsed=0:00:57.46    \nframe=   55 fps=0.9 q=20.0 size=       1KiB time=00:00:00.45 bitrate=  10.0kbits/s speed=0.00775x elapsed=0:00:58.03    \nframe=   56 fps=1.0 q=23.0 size=       1KiB time=00:00:00.45 bitrate=   9.8kbits/s speed=0.00782x elapsed=0:00:58.60    \nframe=   56 fps=0.9 q=23.0 size=       1KiB time=00:00:00.45 bitrate=   9.8kbits/s speed=0.00774x elapsed=0:00:59.18    \nframe=   57 fps=1.0 q=21.0 size=       1KiB time=00:00:00.46 bitrate=   9.6kbits/s speed=0.00781x elapsed=0:00:59.74    \nframe=   58 fps=1.0 q=24.0 size=       1KiB time=00:00:00.47 bitrate=   9.4kbits/s speed=0.00788x elapsed=0:01:00.30    \nframe=   59 fps=1.0 q=23.0 size=       1KiB time=00:00:00.48 bitrate=   9.3kbits/s speed=0.00794x elapsed=0:01:00.85    \nframe=   59 fps=1.0 q=23.0 size=       1KiB time=00:00:00.48 bitrate=   9.3kbits/s speed=0.00787x elapsed=0:01:01.40    \nframe=   59 fps=1.0 q=23.0 size=       1KiB time=00:00:00.48 bitrate=   9.3kbits/s speed=0.0078x elapsed=0:01:02.00    \nframe=   59 fps=0.9 q=23.0 size=       1KiB time=00:00:00.48 bitrate=   9.3kbits/s speed=0.00772x elapsed=0:01:02.60    \nframe=   60 fps=0.9 q=24.0 size=       1KiB time=00:00:00.49 bitrate=   9.1kbits/s speed=0.00778x elapsed=0:01:03.19    \nframe=   61 fps=1.0 q=20.0 size=       1KiB time=00:00:00.50 bitrate=   9.0kbits/s speed=0.00784x elapsed=0:01:03.78    \nframe=   62 fps=1.0 q=24.0 size=       1KiB time=00:00:00.50 bitrate=   8.8kbits/s speed=0.0079x elapsed=0:01:04.37    \nframe=   63 fps=1.0 q=23.0 size=       1KiB time=00:00:00.51 bitrate=   8.7kbits/s speed=0.00796x elapsed=0:01:04.94    \nframe=   63 fps=1.0 q=23.0 size=       1KiB time=00:00:00.51 bitrate=   8.7kbits/s speed=0.00789x elapsed=0:01:05.52    \nframe=   63 fps=1.0 q=23.0 size=       1KiB time=00:00:00.51 bitrate=   8.7kbits/s speed=0.00782x elapsed=0:01:06.09    \nframe=   63 fps=0.9 q=23.0 size=       1KiB time=00:00:00.51 bitrate=   8.7kbits/s speed=0.00775x elapsed=0:01:06.66    \nframe=   63 fps=0.9 q=23.0 size=       1KiB time=00:00:00.51 bitrate=   8.7kbits/s speed=0.00768x elapsed=0:01:07.26    \nframe=   65 fps=1.0 q=15.0 size=       1KiB time=00:00:00.53 bitrate=   8.4kbits/s speed=0.00786x elapsed=0:01:07.84    \nframe=   66 fps=1.0 q=25.0 size=       1KiB time=00:00:00.54 bitrate=   8.3kbits/s speed=0.00792x elapsed=0:01:08.42    \nframe=   67 fps=1.0 q=24.0 size=       1KiB time=00:00:00.55 bitrate=   8.1kbits/s speed=0.00797x elapsed=0:01:08.98    \nframe=   67 fps=1.0 q=24.0 size=       1KiB time=00:00:00.55 bitrate=   8.1kbits/s speed=0.00791x elapsed=0:01:09.56    \nframe=   67 fps=1.0 q=24.0 size=       1KiB time=00:00:00.55 bitrate=   8.1kbits/s speed=0.00784x elapsed=0:01:10.12    \nframe=   67 fps=0.9 q=24.0 size=       1KiB time=00:00:00.55 bitrate=   8.1kbits/s speed=0.00778x elapsed=0:01:10.68    \nframe=   67 fps=0.9 q=24.0 size=       1KiB time=00:00:00.55 bitrate=   8.1kbits/s speed=0.00772x elapsed=0:01:11.26    \nframe=   67 fps=0.9 q=24.0 size=       1KiB time=00:00:00.55 bitrate=   8.1kbits/s speed=0.00766x elapsed=0:01:11.82    \nframe=   68 fps=0.9 q=25.0 size=       1KiB time=00:00:00.55 bitrate=   8.0kbits/s speed=0.00771x elapsed=0:01:12.38    \nframe=   69 fps=0.9 q=23.0 size=       1KiB time=00:00:00.56 bitrate=   7.9kbits/s speed=0.00777x elapsed=0:01:12.95    \nframe=   69 fps=0.9 q=23.0 size=       1KiB time=00:00:00.56 bitrate=   7.9kbits/s speed=0.00771x elapsed=0:01:13.52    \nframe=   70 fps=0.9 q=22.0 size=       1KiB time=00:00:00.57 bitrate=   7.8kbits/s speed=0.00776x elapsed=0:01:14.09    \nframe=   70 fps=0.9 q=22.0 size=       1KiB time=00:00:00.57 bitrate=   7.8kbits/s speed=0.0077x elapsed=0:01:14.67    \nframe=   70 fps=0.9 q=22.0 size=       1KiB time=00:00:00.57 bitrate=   7.8kbits/s speed=0.00764x elapsed=0:01:15.28    \nframe=   70 fps=0.9 q=22.0 size=       1KiB time=00:00:00.57 bitrate=   7.8kbits/s speed=0.00758x elapsed=0:01:15.88    \nframe=   70 fps=0.9 q=22.0 size=       1KiB time=00:00:00.57 bitrate=   7.8kbits/s speed=0.00752x elapsed=0:01:16.49    \nframe=   71 fps=0.9 q=19.0 size=       1KiB time=00:00:00.58 bitrate=   7.7kbits/s speed=0.00757x elapsed=0:01:17.07    \nframe=   71 fps=0.9 q=19.0 size=       1KiB time=00:00:00.58 bitrate=   7.7kbits/s speed=0.00751x elapsed=0:01:17.67    \nframe=   71 fps=0.9 q=19.0 size=       1KiB time=00:00:00.58 bitrate=   7.7kbits/s speed=0.00745x elapsed=0:01:18.25    \nframe=   72 fps=0.9 q=22.0 size=       1KiB time=00:00:00.59 bitrate=   7.6kbits/s speed=0.00751x elapsed=0:01:18.83    \nframe=   72 fps=0.9 q=22.0 size=       1KiB time=00:00:00.59 bitrate=   7.6kbits/s speed=0.00745x elapsed=0:01:19.43    \nframe=   72 fps=0.9 q=22.0 size=       1KiB time=00:00:00.59 bitrate=   7.6kbits/s speed=0.00739x elapsed=0:01:20.01    \nframe=   72 fps=0.9 q=22.0 size=       1KiB time=00:00:00.59 bitrate=   7.6kbits/s speed=0.00734x elapsed=0:01:20.58    \nframe=   74 fps=0.9 q=24.0 size=       1KiB time=00:00:00.60 bitrate=   7.4kbits/s speed=0.0075x elapsed=0:01:21.13    \nframe=   75 fps=0.9 q=22.0 size=       1KiB time=00:00:00.61 bitrate=   7.3kbits/s speed=0.00755x elapsed=0:01:21.71    \nframe=   75 fps=0.9 q=22.0 size=       1KiB time=00:00:00.61 bitrate=   7.3kbits/s speed=0.00749x elapsed=0:01:22.29    \nframe=   75 fps=0.9 q=22.0 size=       1KiB time=00:00:00.61 bitrate=   7.3kbits/s speed=0.00744x elapsed=0:01:22.85    \nframe=   75 fps=0.9 q=22.0 size=       1KiB time=00:00:00.61 bitrate=   7.3kbits/s speed=0.00739x elapsed=0:01:23.42    \nframe=   75 fps=0.9 q=22.0 size=       1KiB time=00:00:00.61 bitrate=   7.3kbits/s speed=0.00734x elapsed=0:01:23.98    \nframe=   77 fps=0.9 q=19.0 size=       1KiB time=00:00:00.63 bitrate=   7.1kbits/s speed=0.00749x elapsed=0:01:24.55    \nframe=   79 fps=0.9 q=22.0 size=       1KiB time=00:00:00.65 bitrate=   6.9kbits/s speed=0.00764x elapsed=0:01:25.13    \nframe=   79 fps=0.9 q=22.0 size=       1KiB time=00:00:00.65 bitrate=   6.9kbits/s speed=0.00758x elapsed=0:01:25.69    \nframe=   79 fps=0.9 q=22.0 size=       1KiB time=00:00:00.65 bitrate=   6.9kbits/s speed=0.00753x elapsed=0:01:26.26    \nframe=   80 fps=0.9 q=24.0 size=       1KiB time=00:00:00.65 bitrate=   6.8kbits/s speed=0.00758x elapsed=0:01:26.83    \nframe=   80 fps=0.9 q=24.0 size=       1KiB time=00:00:00.65 bitrate=   6.8kbits/s speed=0.00753x elapsed=0:01:27.39    \nframe=   80 fps=0.9 q=24.0 size=       1KiB time=00:00:00.65 bitrate=   6.8kbits/s speed=0.00748x elapsed=0:01:27.96    \nframe=   80 fps=0.9 q=24.0 size=       1KiB time=00:00:00.65 bitrate=   6.8kbits/s speed=0.00744x elapsed=0:01:28.53    \nframe=   80 fps=0.9 q=24.0 size=       1KiB time=00:00:00.65 bitrate=   6.8kbits/s speed=0.00739x elapsed=0:01:29.10    \nframe=   81 fps=0.9 q=14.0 size=       1KiB time=00:00:00.66 bitrate=   6.7kbits/s speed=0.00743x elapsed=0:01:29.67    \nframe=   82 fps=0.9 q=25.0 size=       1KiB time=00:00:00.67 bitrate=   6.6kbits/s speed=0.00748x elapsed=0:01:30.24    \nframe=   83 fps=0.9 q=24.0 size=       1KiB time=00:00:00.68 bitrate=   6.6kbits/s speed=0.00752x elapsed=0:01:30.81    \nframe=   83 fps=0.9 q=24.0 size=       1KiB time=00:00:00.68 bitrate=   6.6kbits/s speed=0.00748x elapsed=0:01:31.38    \nframe=   83 fps=0.9 q=24.0 size=       1KiB time=00:00:00.68 bitrate=   6.6kbits/s speed=0.00743x elapsed=0:01:31.96    \nframe=   83 fps=0.9 q=24.0 size=       1KiB time=00:00:00.68 bitrate=   6.6kbits/s speed=0.00739x elapsed=0:01:32.52    \nframe=   83 fps=0.9 q=24.0 size=       1KiB time=00:00:00.68 bitrate=   6.6kbits/s speed=0.00734x elapsed=0:01:33.08    \nframe=   84 fps=0.9 q=25.0 size=       1KiB time=00:00:00.69 bitrate=   6.5kbits/s speed=0.00738x elapsed=0:01:33.68    \nframe=   85 fps=0.9 q=22.0 size=       1KiB time=00:00:00.70 bitrate=   6.4kbits/s speed=0.00743x elapsed=0:01:34.27    \nframe=   86 fps=0.9 q=25.0 size=       1KiB time=00:00:00.70 bitrate=   6.3kbits/s speed=0.00747x elapsed=0:01:34.87    \nframe=   86 fps=0.9 q=25.0 size=       1KiB time=00:00:00.70 bitrate=   6.3kbits/s speed=0.00742x elapsed=0:01:35.46    \nframe=   86 fps=0.9 q=25.0 size=       1KiB time=00:00:00.70 bitrate=   6.3kbits/s speed=0.00738x elapsed=0:01:36.03    \nframe=   86 fps=0.9 q=25.0 size=       1KiB time=00:00:00.70 bitrate=   6.3kbits/s speed=0.00733x elapsed=0:01:36.61    \nframe=   86 fps=0.9 q=25.0 size=       1KiB time=00:00:00.70 bitrate=   6.3kbits/s speed=0.00729x elapsed=0:01:37.19    \nframe=   87 fps=0.9 q=24.0 size=       1KiB time=00:00:00.71 bitrate=   6.3kbits/s speed=0.00733x elapsed=0:01:37.75    \nframe=   87 fps=0.9 q=24.0 size=       1KiB time=00:00:00.71 bitrate=   6.3kbits/s speed=0.00729x elapsed=0:01:38.33    \nframe=   87 fps=0.9 q=24.0 size=       1KiB time=00:00:00.71 bitrate=   6.3kbits/s speed=0.00725x elapsed=0:01:38.90    \nframe=   88 fps=0.9 q=25.0 size=       1KiB time=00:00:00.72 bitrate=   6.2kbits/s speed=0.00729x elapsed=0:01:39.47    \nframe=   88 fps=0.9 q=25.0 size=       1KiB time=00:00:00.72 bitrate=   6.2kbits/s speed=0.00725x elapsed=0:01:40.05    \nframe=   88 fps=0.9 q=25.0 size=       1KiB time=00:00:00.72 bitrate=   6.2kbits/s speed=0.00721x elapsed=0:01:40.62    \nframe=   88 fps=0.9 q=25.0 size=       1KiB time=00:00:00.72 bitrate=   6.2kbits/s speed=0.00716x elapsed=0:01:41.19    \nframe=   89 fps=0.9 q=19.0 size=       1KiB time=00:00:00.73 bitrate=   6.1kbits/s speed=0.0072x elapsed=0:01:41.78    \nframe=   90 fps=0.9 q=24.0 size=       1KiB time=00:00:00.74 bitrate=   6.0kbits/s speed=0.00725x elapsed=0:01:42.35    \nframe=   91 fps=0.9 q=22.0 size=       1KiB time=00:00:00.75 bitrate=   6.0kbits/s speed=0.00729x elapsed=0:01:42.91    \nframe=   91 fps=0.9 q=22.0 size=       1KiB time=00:00:00.75 bitrate=   6.0kbits/s speed=0.00725x elapsed=0:01:43.47    \nframe=   91 fps=0.9 q=22.0 size=       1KiB time=00:00:00.75 bitrate=   6.0kbits/s speed=0.00721x elapsed=0:01:44.06    \nframe=   91 fps=0.9 q=22.0 size=       1KiB time=00:00:00.75 bitrate=   6.0kbits/s speed=0.00717x elapsed=0:01:44.65    \nframe=   91 fps=0.9 q=22.0 size=       1KiB time=00:00:00.75 bitrate=   6.0kbits/s speed=0.00713x elapsed=0:01:45.23    \nframe=   93 fps=0.9 q=19.0 size=       1KiB time=00:00:00.76 bitrate=   5.8kbits/s speed=0.00725x elapsed=0:01:45.78    \nframe=   94 fps=0.9 q=24.0 size=       1KiB time=00:00:00.77 bitrate=   5.8kbits/s speed=0.00729x elapsed=0:01:46.34    \nframe=   95 fps=0.9 q=22.0 size=       1KiB time=00:00:00.78 bitrate=   5.7kbits/s speed=0.00733x elapsed=0:01:46.90    \nframe=   95 fps=0.9 q=22.0 size=       1KiB time=00:00:00.78 bitrate=   5.7kbits/s speed=0.00729x elapsed=0:01:47.48    \nframe=   96 fps=0.9 q=24.0 size=       1KiB time=00:00:00.79 bitrate=   5.7kbits/s speed=0.00733x elapsed=0:01:48.07    \nframe=   98 fps=0.9 q=25.0 size=       1KiB time=00:00:00.80 bitrate=   5.5kbits/s speed=0.00744x elapsed=0:01:48.63    \nframe=   99 fps=0.9 q=24.0 size=       1KiB time=00:00:00.81 bitrate=   5.5kbits/s speed=0.00748x elapsed=0:01:49.17    \nframe=   99 fps=0.9 q=24.0 size=       1KiB time=00:00:00.81 bitrate=   5.5kbits/s speed=0.00744x elapsed=0:01:49.71    \nframe=  100 fps=0.9 q=25.0 size=       1KiB time=00:00:00.82 bitrate=   5.4kbits/s speed=0.00748x elapsed=0:01:50.26    \nframe=  102 fps=0.9 q=25.0 size=       1KiB time=00:00:00.84 bitrate=   5.3kbits/s speed=0.00759x elapsed=0:01:50.82    \nframe=  102 fps=0.9 q=25.0 size=       1KiB time=00:00:00.84 bitrate=   5.3kbits/s speed=0.00756x elapsed=0:01:51.39    \nframe=  102 fps=0.9 q=25.0 size=       1KiB time=00:00:00.84 bitrate=   5.3kbits/s speed=0.00752x elapsed=0:01:51.96    \nframe=  102 fps=0.9 q=25.0 size=       1KiB time=00:00:00.84 bitrate=   5.3kbits/s speed=0.00748x elapsed=0:01:52.53    \nframe=  102 fps=0.9 q=25.0 size=       1KiB time=00:00:00.84 bitrate=   5.3kbits/s speed=0.00744x elapsed=0:01:53.11    \nframe=  103 fps=0.9 q=24.0 size=       1KiB time=00:00:00.85 bitrate=   5.3kbits/s speed=0.00748x elapsed=0:01:53.68    \nframe=  103 fps=0.9 q=24.0 size=       1KiB time=00:00:00.85 bitrate=   5.3kbits/s speed=0.00744x elapsed=0:01:54.23    \nframe=  103 fps=0.9 q=24.0 size=       1KiB time=00:00:00.85 bitrate=   5.3kbits/s speed=0.0074x elapsed=0:01:54.80    \nframe=  104 fps=0.9 q=25.0 size=       1KiB time=00:00:00.85 bitrate=   5.2kbits/s speed=0.00744x elapsed=0:01:55.39    \nframe=  104 fps=0.9 q=25.0 size=       1KiB time=00:00:00.85 bitrate=   5.2kbits/s speed=0.0074x elapsed=0:01:55.97    \nframe=  104 fps=0.9 q=25.0 size=       1KiB time=00:00:00.85 bitrate=   5.2kbits/s speed=0.00736x elapsed=0:01:56.54    \nframe=  104 fps=0.9 q=25.0 size=       1KiB time=00:00:00.85 bitrate=   5.2kbits/s speed=0.00733x elapsed=0:01:57.13    \nframe=  105 fps=0.9 q=19.0 size=       1KiB time=00:00:00.86 bitrate=   5.2kbits/s speed=0.00736x elapsed=0:01:57.71    \nframe=  106 fps=0.9 q=23.0 size=       1KiB time=00:00:00.87 bitrate=   5.1kbits/s speed=0.0074x elapsed=0:01:58.28    \nframe=  107 fps=0.9 q=21.0 size=       1KiB time=00:00:00.88 bitrate=   5.1kbits/s speed=0.00743x elapsed=0:01:58.87    \nframe=  107 fps=0.9 q=21.0 size=       1KiB time=00:00:00.88 bitrate=   5.1kbits/s speed=0.0074x elapsed=0:01:59.44    \nframe=  107 fps=0.9 q=21.0 size=       1KiB time=00:00:00.88 bitrate=   5.1kbits/s speed=0.00736x elapsed=0:02:00.01    \nframe=  107 fps=0.9 q=21.0 size=       1KiB time=00:00:00.88 bitrate=   5.1kbits/s speed=0.00733x elapsed=0:02:00.57    \nframe=  107 fps=0.9 q=21.0 size=       1KiB time=00:00:00.88 bitrate=   5.1kbits/s speed=0.00729x elapsed=0:02:01.15    \nframe=  107 fps=0.9 q=21.0 size=       1KiB time=00:00:00.88 bitrate=   5.1kbits/s speed=0.00726x elapsed=0:02:01.70    \nframe=  108 fps=0.9 q=23.0 size=       1KiB time=00:00:00.89 bitrate=   5.0kbits/s speed=0.00729x elapsed=0:02:02.26    \nframe=  109 fps=0.9 q=17.0 size=       1KiB time=00:00:00.90 bitrate=   5.0kbits/s speed=0.00733x elapsed=0:02:02.84    \nframe=  110 fps=0.9 q=23.0 size=       1KiB time=00:00:00.90 bitrate=   4.9kbits/s speed=0.00736x elapsed=0:02:03.41    \nframe=  111 fps=0.9 q=21.0 size=       1KiB time=00:00:00.91 bitrate=   4.9kbits/s speed=0.00739x elapsed=0:02:03.96    \nframe=  112 fps=0.9 q=23.0 size=       1KiB time=00:00:00.92 bitrate=   4.8kbits/s speed=0.00743x elapsed=0:02:04.53    \nframe=  112 fps=0.9 q=23.0 size=       1KiB time=00:00:00.92 bitrate=   4.8kbits/s speed=0.0074x elapsed=0:02:05.08    \nframe=  112 fps=0.9 q=23.0 size=       1KiB time=00:00:00.92 bitrate=   4.8kbits/s speed=0.00736x elapsed=0:02:05.64    \nframe=  112 fps=0.9 q=23.0 size=       1KiB time=00:00:00.92 bitrate=   4.8kbits/s speed=0.00733x elapsed=0:02:06.19    \nframe=  113 fps=0.9 q=12.0 size=       1KiB time=00:00:00.93 bitrate=   4.8kbits/s speed=0.00736x elapsed=0:02:06.75    \nframe=  114 fps=0.9 q=24.0 size=       1KiB time=00:00:00.94 bitrate=   4.8kbits/s speed=0.0074x elapsed=0:02:07.32    \nframe=  115 fps=0.9 q=23.0 size=       1KiB time=00:00:00.95 bitrate=   4.7kbits/s speed=0.00743x elapsed=0:02:07.87    \nframe=  115 fps=0.9 q=23.0 size=       1KiB time=00:00:00.95 bitrate=   4.7kbits/s speed=0.0074x elapsed=0:02:08.44    \nframe=  115 fps=0.9 q=23.0 size=       1KiB time=00:00:00.95 bitrate=   4.7kbits/s speed=0.00736x elapsed=0:02:09.02    \nframe=  115 fps=0.9 q=23.0 size=       1KiB time=00:00:00.95 bitrate=   4.7kbits/s speed=0.00733x elapsed=0:02:09.58    \nframe=  115 fps=0.9 q=23.0 size=       1KiB time=00:00:00.95 bitrate=   4.7kbits/s speed=0.0073x elapsed=0:02:10.15    \nframe=  115 fps=0.9 q=23.0 size=       1KiB time=00:00:00.95 bitrate=   4.7kbits/s speed=0.00727x elapsed=0:02:10.70    \nframe=  116 fps=0.9 q=24.0 size=       1KiB time=00:00:00.95 bitrate=   4.7kbits/s speed=0.0073x elapsed=0:02:11.25    \nframe=  116 fps=0.9 q=24.0 size=       1KiB time=00:00:00.95 bitrate=   4.7kbits/s speed=0.00727x elapsed=0:02:11.81    \nframe=  117 fps=0.9 q=21.0 size=       1KiB time=00:00:00.96 bitrate=   4.6kbits/s speed=0.0073x elapsed=0:02:12.37    \nframe=  118 fps=0.9 q=21.0 size=       1KiB time=00:00:00.97 bitrate=   4.6kbits/s speed=0.00733x elapsed=0:02:12.93    \nframe=  118 fps=0.9 q=21.0 size=       1KiB time=00:00:00.97 bitrate=   4.6kbits/s speed=0.0073x elapsed=0:02:13.49    \nframe=  118 fps=0.9 q=21.0 size=       1KiB time=00:00:00.97 bitrate=   4.6kbits/s speed=0.00727x elapsed=0:02:14.06    \nframe=  118 fps=0.9 q=21.0 size=       1KiB time=00:00:00.97 bitrate=   4.6kbits/s speed=0.00724x elapsed=0:02:14.61    \nframe=  118 fps=0.9 q=21.0 size=       1KiB time=00:00:00.97 bitrate=   4.6kbits/s speed=0.00721x elapsed=0:02:15.17    \nframe=  119 fps=0.9 q=17.0 size=       1KiB time=00:00:00.98 bitrate=   4.6kbits/s speed=0.00724x elapsed=0:02:15.74    \nframe=  119 fps=0.9 q=17.0 size=       1KiB time=00:00:00.98 bitrate=   4.6kbits/s speed=0.00721x elapsed=0:02:16.36    \nframe=  119 fps=0.9 q=17.0 size=       1KiB time=00:00:00.98 bitrate=   4.6kbits/s speed=0.00718x elapsed=0:02:16.94    \nframe=  120 fps=0.9 q=21.0 size=       1KiB time=00:00:00.99 bitrate=   4.5kbits/s speed=0.00721x elapsed=0:02:17.49    \nframe=  121 fps=0.9 q=17.0 size=       1KiB time=00:00:01.00 bitrate=   4.5kbits/s speed=0.00724x elapsed=0:02:18.04    \nframe=  122 fps=0.9 q=23.0 size=       1KiB time=00:00:01.00 bitrate=   4.4kbits/s speed=0.00727x elapsed=0:02:18.62    \nframe=  123 fps=0.9 q=21.0 size=       1KiB time=00:00:01.01 bitrate=   4.4kbits/s speed=0.0073x elapsed=0:02:19.18    \nframe=  123 fps=0.9 q=21.0 size=       1KiB time=00:00:01.01 bitrate=   4.4kbits/s speed=0.00728x elapsed=0:02:19.74    \nframe=  123 fps=0.9 q=21.0 size=       1KiB time=00:00:01.01 bitrate=   4.4kbits/s speed=0.00725x elapsed=0:02:20.30    \nframe=  124 fps=0.9 q=23.0 size=       1KiB time=00:00:01.02 bitrate=   4.4kbits/s speed=0.00728x elapsed=0:02:20.85    \nframe=  124 fps=0.9 q=23.0 size=       1KiB time=00:00:01.02 bitrate=   4.4kbits/s speed=0.00725x elapsed=0:02:21.41    \nframe=  125 fps=0.9 q=17.0 size=       1KiB time=00:00:01.03 bitrate=   4.3kbits/s speed=0.00728x elapsed=0:02:21.97    \nframe=  126 fps=0.9 q=23.0 size=       1KiB time=00:00:01.04 bitrate=   4.3kbits/s speed=0.00731x elapsed=0:02:22.53    \nframe=  128 fps=0.9 q=23.0 size=       1KiB time=00:00:01.05 bitrate=   4.2kbits/s speed=0.0074x elapsed=0:02:23.10    \nframe=  129 fps=0.9 q=9.0 size=       1KiB time=00:00:01.06 bitrate=   4.2kbits/s speed=0.00742x elapsed=0:02:23.66    \nframe=  130 fps=0.9 q=24.0 size=       1KiB time=00:00:01.07 bitrate=   4.2kbits/s speed=0.00745x elapsed=0:02:24.22    \nframe=  131 fps=0.9 q=23.0 size=       1KiB time=00:00:01.08 bitrate=   4.1kbits/s speed=0.00748x elapsed=0:02:24.77    \nframe=  131 fps=0.9 q=23.0 size=       1KiB time=00:00:01.08 bitrate=   4.1kbits/s speed=0.00745x elapsed=0:02:25.33    \nframe=  131 fps=0.9 q=23.0 size=       1KiB time=00:00:01.08 bitrate=   4.1kbits/s speed=0.00743x elapsed=0:02:25.89    \nframe=  133 fps=0.9 q=21.0 size=       1KiB time=00:00:01.10 bitrate=   4.1kbits/s speed=0.00751x elapsed=0:02:26.45    \nframe=  134 fps=0.9 q=23.0 size=       1KiB time=00:00:01.10 bitrate=   4.0kbits/s speed=0.00754x elapsed=0:02:27.01    \nframe=  134 fps=0.9 q=23.0 size=       1KiB time=00:00:01.10 bitrate=   4.0kbits/s speed=0.00751x elapsed=0:02:27.58    \nframe=  134 fps=0.9 q=23.0 size=       1KiB time=00:00:01.10 bitrate=   4.0kbits/s speed=0.00748x elapsed=0:02:28.13    \nframe=  135 fps=0.9 q=20.0 size=       1KiB time=00:00:01.11 bitrate=   4.0kbits/s speed=0.00751x elapsed=0:02:28.70    \nframe=  135 fps=0.9 q=20.0 size=       1KiB time=00:00:01.11 bitrate=   4.0kbits/s speed=0.00748x elapsed=0:02:29.28    \nframe=  135 fps=0.9 q=20.0 size=       1KiB time=00:00:01.11 bitrate=   4.0kbits/s speed=0.00745x elapsed=0:02:29.87    \nframe=  137 fps=0.9 q=17.0 size=       1KiB time=00:00:01.13 bitrate=   4.0kbits/s speed=0.00753x elapsed=0:02:30.43    \nframe=  138 fps=0.9 q=24.0 size=       1KiB time=00:00:01.14 bitrate=   3.9kbits/s speed=0.00756x elapsed=0:02:31.01    \nframe=  139 fps=0.9 q=23.0 size=       1KiB time=00:00:01.15 bitrate=   3.9kbits/s speed=0.00759x elapsed=0:02:31.58    \nframe=  139 fps=0.9 q=23.0 size=       1KiB time=00:00:01.15 bitrate=   3.9kbits/s speed=0.00756x elapsed=0:02:32.14    \nframe=  142 fps=0.9 q=24.0 size=       1KiB time=00:00:01.17 bitrate=   3.8kbits/s speed=0.00769x elapsed=0:02:32.70    \nframe=  143 fps=0.9 q=23.0 size=       1KiB time=00:00:01.18 bitrate=   3.8kbits/s speed=0.00772x elapsed=0:02:33.26    \nframe=  144 fps=0.9 q=24.0 size=       1KiB time=00:00:01.19 bitrate=   3.8kbits/s speed=0.00775x elapsed=0:02:33.81    \nframe=  146 fps=0.9 q=25.0 size=       1KiB time=00:00:01.20 bitrate=   3.7kbits/s speed=0.00783x elapsed=0:02:34.37    \nframe=  146 fps=0.9 q=25.0 size=       1KiB time=00:00:01.20 bitrate=   3.7kbits/s speed=0.0078x elapsed=0:02:34.94    \nframe=  149 fps=1.0 q=23.0 size=       1KiB time=00:00:01.23 bitrate=   3.6kbits/s speed=0.00793x elapsed=0:02:35.50    \nframe=  149 fps=1.0 q=23.0 size=       1KiB time=00:00:01.23 bitrate=   3.6kbits/s speed=0.0079x elapsed=0:02:36.05    \nframe=  150 fps=1.0 q=25.0 size=       1KiB time=00:00:01.24 bitrate=   3.6kbits/s speed=0.00793x elapsed=0:02:36.65    \nframe=  151 fps=1.0 q=24.0 size=       1KiB time=00:00:01.25 bitrate=   3.6kbits/s speed=0.00795x elapsed=0:02:37.22    \nframe=  151 fps=1.0 q=24.0 size=       1KiB time=00:00:01.25 bitrate=   3.6kbits/s speed=0.00792x elapsed=0:02:37.83    \nframe=  153 fps=1.0 q=20.0 size=       1KiB time=00:00:01.26 bitrate=   3.5kbits/s speed=0.008x elapsed=0:02:38.41    \nframe=  155 fps=1.0 q=24.0 size=       1KiB time=00:00:01.28 bitrate=   3.5kbits/s speed=0.00807x elapsed=0:02:39.00    \nframe=  156 fps=1.0 q=25.0 size=       1KiB time=00:00:01.29 bitrate=   3.5kbits/s speed=0.00809x elapsed=0:02:39.58    \nframe=  158 fps=1.0 q=25.0 size=       1KiB time=00:00:01.30 bitrate=   3.4kbits/s speed=0.00817x elapsed=0:02:40.16    \nframe=  158 fps=1.0 q=25.0 size=       1KiB time=00:00:01.30 bitrate=   3.4kbits/s speed=0.00814x elapsed=0:02:40.72    \nframe=  159 fps=1.0 q=24.0 size=       1KiB time=00:00:01.30 bitrate=   3.4kbits/s speed=0.00811x elapsed=0:02:41.30    \nframe=  159 fps=1.0 q=24.0 size=       1KiB time=00:00:01.31 bitrate=   3.4kbits/s speed=0.00813x elapsed=0:02:41.87    \nframe=  161 fps=1.0 q=14.0 size=       1KiB time=00:00:01.33 bitrate=   3.4kbits/s speed=0.00821x elapsed=0:02:42.44    \nframe=  162 fps=1.0 q=25.0 size=       1KiB time=00:00:01.34 bitrate=   3.3kbits/s speed=0.00823x elapsed=0:02:43.00    \nframe=  163 fps=1.0 q=24.0 size=       1KiB time=00:00:01.35 bitrate=   3.3kbits/s speed=0.00825x elapsed=0:02:43.57    \nframe=  164 fps=1.0 q=25.0 size=       1KiB time=00:00:01.35 bitrate=   3.3kbits/s speed=0.00828x elapsed=0:02:44.13    \nframe=  165 fps=1.0 q=22.0 size=       1KiB time=00:00:01.36 bitrate=   3.3kbits/s speed=0.0083x elapsed=0:02:44.71    \nframe=  165 fps=1.0 q=22.0 size=       1KiB time=00:00:01.36 bitrate=   3.3kbits/s speed=0.00827x elapsed=0:02:45.29    \nframe=  166 fps=1.0 q=25.0 size=       1KiB time=00:00:01.37 bitrate=   3.3kbits/s speed=0.00829x elapsed=0:02:45.87    \nframe=  168 fps=1.0 q=25.0 size=       1KiB time=00:00:01.39 bitrate=   3.2kbits/s speed=0.00836x elapsed=0:02:46.42    \nframe=  170 fps=1.0 q=25.0 size=       1KiB time=00:00:01.40 bitrate=   3.2kbits/s speed=0.00843x elapsed=0:02:46.97    \nframe=  171 fps=1.0 q=24.0 size=       1KiB time=00:00:01.41 bitrate=   3.2kbits/s speed=0.00845x elapsed=0:02:47.55    \nframe=  173 fps=1.0 q=22.0 size=       1KiB time=00:00:01.42 bitrate=   3.1kbits/s speed=0.00848x elapsed=0:02:48.11    \nframe=  174 fps=1.0 q=22.0 size=       1KiB time=00:00:01.44 bitrate=   3.1kbits/s speed=0.00855x elapsed=0:02:48.70    \nframe=  174 fps=1.0 q=22.0 size=       1KiB time=00:00:01.44 bitrate=   3.1kbits/s speed=0.00852x elapsed=0:02:49.28    \nframe=  175 fps=1.0 q=19.0 size=       1KiB time=00:00:01.45 bitrate=   3.1kbits/s speed=0.00854x elapsed=0:02:49.86    \nframe=  176 fps=1.0 q=22.0 size=       1KiB time=00:00:01.45 bitrate=   3.1kbits/s speed=0.00856x elapsed=0:02:50.42    \nframe=  178 fps=1.0 q=25.0 size=       1KiB time=00:00:01.47 bitrate=   3.0kbits/s speed=0.00863x elapsed=0:02:50.99    \nframe=  178 fps=1.0 q=25.0 size=       1KiB time=00:00:01.47 bitrate=   3.0kbits/s speed=0.0086x elapsed=0:02:51.57    \nframe=  180 fps=1.0 q=25.0 size=       1KiB time=00:00:01.49 bitrate=   3.0kbits/s speed=0.00866x elapsed=0:02:52.15    \nframe=  181 fps=1.0 q=22.0 size=       1KiB time=00:00:01.50 bitrate=   3.0kbits/s speed=0.00868x elapsed=0:02:52.72    \nframe=  182 fps=1.1 q=25.0 size=       1KiB time=00:00:01.50 bitrate=   3.0kbits/s speed=0.00866x elapsed=0:02:53.29    \nframe=  183 fps=1.1 q=24.0 size=       1KiB time=00:00:01.51 bitrate=   3.0kbits/s speed=0.00872x elapsed=0:02:53.84    \nframe=  185 fps=1.1 q=19.0 size=       1KiB time=00:00:01.53 bitrate=   2.9kbits/s speed=0.00879x elapsed=0:02:54.40    \nframe=  185 fps=1.1 q=19.0 size=       1KiB time=00:00:01.53 bitrate=   2.9kbits/s speed=0.00876x elapsed=0:02:54.96    \nframe=  188 fps=1.1 q=25.0 size=       1KiB time=00:00:01.55 bitrate=   2.9kbits/s speed=0.00888x elapsed=0:02:55.52    \nframe=  189 fps=1.1 q=22.0 size=       1KiB time=00:00:01.56 bitrate=   2.9kbits/s speed=0.0089x elapsed=0:02:56.09    \nframe=  190 fps=1.1 q=25.0 size=       1KiB time=00:00:01.57 bitrate=   2.8kbits/s speed=0.00892x elapsed=0:02:56.65    \nframe=  190 fps=1.1 q=25.0 size=       1KiB time=00:00:01.57 bitrate=   2.8kbits/s speed=0.00889x elapsed=0:02:57.20    \nframe=  190 fps=1.1 q=25.0 size=       1KiB time=00:00:01.57 bitrate=   2.8kbits/s speed=0.00886x elapsed=0:02:57.79    \nframe=  191 fps=1.1 q=24.0 size=       1KiB time=00:00:01.58 bitrate=   2.8kbits/s speed=0.00888x elapsed=0:02:58.39    \nframe=  193 fps=1.1 q=13.0 size=       1KiB time=00:00:01.60 bitrate=   2.8kbits/s speed=0.00894x elapsed=0:02:58.98    \nframe=  194 fps=1.1 q=25.0 size=       1KiB time=00:00:01.60 bitrate=   2.8kbits/s speed=0.00896x elapsed=0:02:59.55    \nframe=  195 fps=1.1 q=24.0 size=       1KiB time=00:00:01.61 bitrate=   2.8kbits/s speed=0.00898x elapsed=0:03:00.11    \nframe=  197 fps=1.1 q=22.0 size=       1KiB time=00:00:01.63 bitrate=   2.7kbits/s speed=0.00904x elapsed=0:03:00.66    \nframe=  197 fps=1.1 q=22.0 size=       1KiB time=00:00:01.63 bitrate=   2.7kbits/s speed=0.00901x elapsed=0:03:01.24    \nframe=  197 fps=1.1 q=22.0 size=       1KiB time=00:00:01.63 bitrate=   2.7kbits/s speed=0.00898x elapsed=0:03:01.83    \nframe=  198 fps=1.1 q=25.0 size=       1KiB time=00:00:01.64 bitrate=   2.7kbits/s speed=0.009x elapsed=0:03:02.39    \nframe=  199 fps=1.1 q=24.0 size=       1KiB time=00:00:01.65 bitrate=   2.7kbits/s speed=0.00902x elapsed=0:03:02.97    \nframe=  200 fps=1.1 q=25.0 size=       1KiB time=00:00:01.65 bitrate=   2.7kbits/s speed=0.00903x elapsed=0:03:03.55    \nframe=  201 fps=1.1 q=19.0 size=       1KiB time=00:00:01.66 bitrate=   2.7kbits/s speed=0.00905x elapsed=0:03:04.13    \nframe=  202 fps=1.1 q=25.0 size=       1KiB time=00:00:01.67 bitrate=   2.7kbits/s speed=0.00907x elapsed=0:03:04.70    \nframe=  204 fps=1.1 q=25.0 size=       1KiB time=00:00:01.69 bitrate=   2.6kbits/s speed=0.00913x elapsed=0:03:05.28    \nframe=  205 fps=1.1 q=22.0 size=       1KiB time=00:00:01.70 bitrate=   2.6kbits/s speed=0.00915x elapsed=0:03:05.83    \nframe=  205 fps=1.1 q=22.0 size=       1KiB time=00:00:01.70 bitrate=   2.6kbits/s speed=0.00912x elapsed=0:03:06.42    \nframe=  205 fps=1.1 q=22.0 size=       1KiB time=00:00:01.70 bitrate=   2.6kbits/s speed=0.00909x elapsed=0:03:06.97    \nframe=  205 fps=1.1 q=22.0 size=       1KiB time=00:00:01.70 bitrate=   2.6kbits/s speed=0.00907x elapsed=0:03:07.52    \nframe=  206 fps=1.1 q=25.0 size=       1KiB time=00:00:01.70 bitrate=   2.6kbits/s speed=0.00908x elapsed=0:03:08.08    \nframe=  206 fps=1.1 q=25.0 size=       1KiB time=00:00:01.70 bitrate=   2.6kbits/s speed=0.00906x elapsed=0:03:08.63    \nframe=  207 fps=1.1 q=24.0 size=       1KiB time=00:00:01.71 bitrate=   2.6kbits/s speed=0.00907x elapsed=0:03:09.20    \nframe=  207 fps=1.1 q=24.0 size=       1KiB time=00:00:01.71 bitrate=   2.6kbits/s speed=0.00905x elapsed=0:03:09.77    \nframe=  210 fps=1.1 q=24.0 size=       1KiB time=00:00:01.74 bitrate=   2.6kbits/s speed=0.00915x elapsed=0:03:10.31    \nframe=  211 fps=1.1 q=23.0 size=       1KiB time=00:00:01.75 bitrate=   2.6kbits/s speed=0.00917x elapsed=0:03:10.88    \nframe=  213 fps=1.1 q=21.0 size=       1KiB time=00:00:01.76 bitrate=   2.5kbits/s speed=0.00923x elapsed=0:03:11.43    \nframe=  213 fps=1.1 q=21.0 size=       1KiB time=00:00:01.76 bitrate=   2.5kbits/s speed=0.0092x elapsed=0:03:11.98    \nframe=  214 fps=1.1 q=24.0 size=       1KiB time=00:00:01.77 bitrate=   2.5kbits/s speed=0.00922x elapsed=0:03:12.54    \nframe=  215 fps=1.1 q=23.0 size=       1KiB time=00:00:01.78 bitrate=   2.5kbits/s speed=0.00923x elapsed=0:03:13.11    \nframe=  217 fps=1.1 q=17.0 size=       1KiB time=00:00:01.80 bitrate=   2.5kbits/s speed=0.00929x elapsed=0:03:13.69    \nframe=  217 fps=1.1 q=17.0 size=       1KiB time=00:00:01.80 bitrate=   2.5kbits/s speed=0.00927x elapsed=0:03:14.27    \nframe=  219 fps=1.1 q=23.0 size=       1KiB time=00:00:01.81 bitrate=   2.5kbits/s speed=0.00932x elapsed=0:03:14.84    \nframe=  220 fps=1.1 q=24.0 size=       1KiB time=00:00:01.82 bitrate=   2.5kbits/s speed=0.00934x elapsed=0:03:15.39    \nframe=  220 fps=1.1 q=24.0 size=       1KiB time=00:00:01.82 bitrate=   2.5kbits/s speed=0.00931x elapsed=0:03:15.96    \nframe=  220 fps=1.1 q=24.0 size=       1KiB time=00:00:01.82 bitrate=   2.5kbits/s speed=0.00929x elapsed=0:03:16.52    \nframe=  220 fps=1.1 q=24.0 size=       1KiB time=00:00:01.82 bitrate=   2.5kbits/s speed=0.00926x elapsed=0:03:17.08    \nframe=  220 fps=1.1 q=24.0 size=       1KiB time=00:00:01.82 bitrate=   2.5kbits/s speed=0.00923x elapsed=0:03:17.63    \nframe=  220 fps=1.1 q=24.0 size=       1KiB time=00:00:01.82 bitrate=   2.5kbits/s speed=0.00921x elapsed=0:03:18.17    \nframe=  221 fps=1.1 q=21.0 size=       1KiB time=00:00:01.83 bitrate=   2.4kbits/s speed=0.00923x elapsed=0:03:18.72    \nframe=  221 fps=1.1 q=21.0 size=       1KiB time=00:00:01.83 bitrate=   2.4kbits/s speed=0.0092x elapsed=0:03:19.27    \nframe=  221 fps=1.1 q=21.0 size=       1KiB time=00:00:01.83 bitrate=   2.4kbits/s speed=0.00917x elapsed=0:03:19.83    \nframe=  222 fps=1.1 q=24.0 size=       1KiB time=00:00:01.84 bitrate=   2.4kbits/s speed=0.00919x elapsed=0:03:20.39    \nframe=  222 fps=1.1 q=24.0 size=       1KiB time=00:00:01.84 bitrate=   2.4kbits/s speed=0.00916x elapsed=0:03:20.97    \nframe=  222 fps=1.1 q=24.0 size=       1KiB time=00:00:01.84 bitrate=   2.4kbits/s speed=0.00914x elapsed=0:03:21.59    \nframe=  222 fps=1.1 q=24.0 size=       1KiB time=00:00:01.84 bitrate=   2.4kbits/s speed=0.00911x elapsed=0:03:22.19    \nframe=  223 fps=1.1 q=23.0 size=       1KiB time=00:00:01.85 bitrate=   2.4kbits/s speed=0.00912x elapsed=0:03:22.77    \nframe=  224 fps=1.1 q=24.0 size=       1KiB time=00:00:01.85 bitrate=   2.4kbits/s speed=0.0091x elapsed=0:03:23.36    \nframe=  225 fps=1.1 q=9.0 size=       1KiB time=00:00:01.86 bitrate=   2.4kbits/s speed=0.00915x elapsed=0:03:23.94    \nframe=  226 fps=1.1 q=24.0 size=       1KiB time=00:00:01.87 bitrate=   2.4kbits/s speed=0.00917x elapsed=0:03:24.53    \nframe=  226 fps=1.1 q=24.0 size=       1KiB time=00:00:01.87 bitrate=   2.4kbits/s speed=0.00914x elapsed=0:03:25.10    \nframe=  228 fps=1.1 q=24.0 size=       1KiB time=00:00:01.89 bitrate=   2.4kbits/s speed=0.0092x elapsed=0:03:25.68    \nframe=  229 fps=1.1 q=21.0 size=       1KiB time=00:00:01.90 bitrate=   2.4kbits/s speed=0.00921x elapsed=0:03:26.25    \nframe=  230 fps=1.1 q=24.0 size=       1KiB time=00:00:01.90 bitrate=   2.3kbits/s speed=0.00923x elapsed=0:03:26.83    \nframe=  231 fps=1.1 q=23.0 size=       1KiB time=00:00:01.91 bitrate=   2.3kbits/s speed=0.00924x elapsed=0:03:27.41    \nframe=  231 fps=1.1 q=23.0 size=       1KiB time=00:00:01.91 bitrate=   2.3kbits/s speed=0.00922x elapsed=0:03:27.98    \nframe=  232 fps=1.1 q=24.0 size=       1KiB time=00:00:01.92 bitrate=   2.3kbits/s speed=0.00923x elapsed=0:03:28.56    \nframe=  235 fps=1.1 q=23.0 size=       1KiB time=00:00:01.95 bitrate=   2.3kbits/s speed=0.00932x elapsed=0:03:29.12    \nframe=  235 fps=1.1 q=23.0 size=       1KiB time=00:00:01.95 bitrate=   2.3kbits/s speed=0.0093x elapsed=0:03:29.69    \nframe=  238 fps=1.1 q=24.0 size=       1KiB time=00:00:01.97 bitrate=   2.3kbits/s speed=0.00939x elapsed=0:03:30.25    \nframe=  238 fps=1.1 q=24.0 size=       1KiB time=00:00:01.97 bitrate=   2.3kbits/s speed=0.00937x elapsed=0:03:30.81    \nframe=  239 fps=1.1 q=22.0 size=       1KiB time=00:00:01.98 bitrate=   2.3kbits/s speed=0.00938x elapsed=0:03:31.36    \nframe=  241 fps=1.1 q=7.0 size=       1KiB time=00:00:02.00 bitrate=   2.2kbits/s speed=0.00944x elapsed=0:03:31.92    \nframe=  242 fps=1.1 q=25.0 size=       1KiB time=00:00:02.00 bitrate=   2.2kbits/s speed=0.00945x elapsed=0:03:32.48    \nframe=  243 fps=1.1 q=24.0 size=       1KiB time=00:00:02.01 bitrate=   2.2kbits/s speed=0.00947x elapsed=0:03:33.05    \nframe=  245 fps=1.1 q=22.0 size=       1KiB time=00:00:02.03 bitrate=   2.2kbits/s speed=0.00952x elapsed=0:03:33.61    \nframe=  246 fps=1.1 q=25.0 size=       1KiB time=00:00:02.04 bitrate=   2.2kbits/s speed=0.00953x elapsed=0:03:34.17    \nframe=  246 fps=1.1 q=25.0 size=       1KiB time=00:00:02.04 bitrate=   2.2kbits/s speed=0.00951x elapsed=0:03:34.73    \nframe=  248 fps=1.2 q=25.0 size=       1KiB time=00:00:02.05 bitrate=   2.2kbits/s speed=0.00956x elapsed=0:03:35.29    \nframe=  250 fps=1.2 q=25.0 size=       1KiB time=00:00:02.07 bitrate=   2.2kbits/s speed=0.00961x elapsed=0:03:35.84    \nframe=  251 fps=1.2 q=24.0 size=       1KiB time=00:00:02.08 bitrate=   2.2kbits/s speed=0.00963x elapsed=0:03:36.40    \nframe=  253 fps=1.2 q=22.0 size=       1KiB time=00:00:02.10 bitrate=   2.1kbits/s speed=0.00968x elapsed=0:03:36.95    \nframe=  254 fps=1.2 q=22.0 size=       1KiB time=00:00:02.10 bitrate=   2.1kbits/s speed=0.00969x elapsed=0:03:37.52    \nframe=  255 fps=1.2 q=18.0 size=       1KiB time=00:00:02.11 bitrate=   2.1kbits/s speed=0.00971x elapsed=0:03:38.08    \nframe=  257 fps=1.2 q=12.0 size=       1KiB time=00:00:02.13 bitrate=   2.1kbits/s speed=0.00976x elapsed=0:03:38.66    \nframe=  258 fps=1.2 q=25.0 size=       1KiB time=00:00:02.14 bitrate=   2.1kbits/s speed=0.00977x elapsed=0:03:39.24    \nframe=  258 fps=1.2 q=25.0 size=       1KiB time=00:00:02.14 bitrate=   2.1kbits/s speed=0.00974x elapsed=0:03:39.81    \nframe=  260 fps=1.2 q=25.0 size=       1KiB time=00:00:02.15 bitrate=   2.1kbits/s speed=0.00979x elapsed=0:03:40.39    \nframe=  261 fps=1.2 q=22.0 size=       1KiB time=00:00:02.16 bitrate=   2.1kbits/s speed=0.00981x elapsed=0:03:40.95    \nframe=  261 fps=1.2 q=22.0 size=       1KiB time=00:00:02.16 bitrate=   2.1kbits/s speed=0.00978x elapsed=0:03:41.53    \nframe=  263 fps=1.2 q=24.0 size=       1KiB time=00:00:02.18 bitrate=   2.1kbits/s speed=0.00983x elapsed=0:03:42.09    \nframe=  264 fps=1.2 q=25.0 size=       1KiB time=00:00:02.18 bitrate=   2.1kbits/s speed=0.0098x elapsed=0:03:42.67    \nframe=  265 fps=1.2 q=18.0 size=       1KiB time=00:00:02.20 bitrate=   2.0kbits/s speed=0.00985x elapsed=0:03:43.25    \nframe=  267 fps=1.2 q=24.0 size=       1KiB time=00:00:02.21 bitrate=   2.0kbits/s speed=0.0099x elapsed=0:03:43.81    \nframe=  267 fps=1.2 q=24.0 size=       1KiB time=00:00:02.21 bitrate=   2.0kbits/s speed=0.00988x elapsed=0:03:44.37    \nframe=  268 fps=1.2 q=25.0 size=       1KiB time=00:00:02.22 bitrate=   2.0kbits/s speed=0.00989x elapsed=0:03:44.96    \nframe=  270 fps=1.2 q=24.0 size=       1KiB time=00:00:02.24 bitrate=   2.0kbits/s speed=0.00994x elapsed=0:03:45.56    \nframe=  272 fps=1.2 q=24.0 size=       1KiB time=00:00:02.25 bitrate=   2.0kbits/s speed=0.00995x elapsed=0:03:46.15    \nframe=  273 fps=1.2 q=11.0 size=       1KiB time=00:00:02.26 bitrate=   2.0kbits/s speed=0.01x elapsed=0:03:46.72    \nframe=  275 fps=1.2 q=24.0 size=       1KiB time=00:00:02.28 bitrate=   2.0kbits/s speed=0.01x elapsed=0:03:47.30    \nframe=  275 fps=1.2 q=24.0 size=       1KiB time=00:00:02.28 bitrate=   2.0kbits/s speed=0.01x elapsed=0:03:47.86    \nframe=  276 fps=1.2 q=25.0 size=       1KiB time=00:00:02.29 bitrate=   2.0kbits/s speed=0.01x elapsed=0:03:48.41    \nframe=  277 fps=1.2 q=23.0 size=       1KiB time=00:00:02.30 bitrate=   1.9kbits/s speed=0.01x elapsed=0:03:48.98    \nframe=  278 fps=1.2 q=24.0 size=       1KiB time=00:00:02.30 bitrate=   1.9kbits/s speed=0.0101x elapsed=0:03:49.53    \nframe=  278 fps=1.2 q=24.0 size=       1KiB time=00:00:02.30 bitrate=   1.9kbits/s speed=0.01x elapsed=0:03:50.10    \nframe=  279 fps=1.2 q=22.0 size=       1KiB time=00:00:02.31 bitrate=   1.9kbits/s speed=0.01x elapsed=0:03:50.66    \nframe=  280 fps=1.2 q=24.0 size=       1KiB time=00:00:02.32 bitrate=   1.9kbits/s speed=0.0101x elapsed=0:03:51.23    \nframe=  282 fps=1.2 q=25.0 size=       1KiB time=00:00:02.34 bitrate=   1.9kbits/s speed=0.0101x elapsed=0:03:51.81    \nframe=  283 fps=1.2 q=24.0 size=       1KiB time=00:00:02.35 bitrate=   1.9kbits/s speed=0.0101x elapsed=0:03:52.42    \nframe=  283 fps=1.2 q=24.0 size=       1KiB time=00:00:02.35 bitrate=   1.9kbits/s speed=0.0101x elapsed=0:03:53.03    \nframe=  284 fps=1.2 q=24.0 size=       1KiB time=00:00:02.35 bitrate=   1.9kbits/s speed=0.0101x elapsed=0:03:53.60    \nframe=  287 fps=1.2 q=24.0 size=       1KiB time=00:00:02.38 bitrate=   1.9kbits/s speed=0.0102x elapsed=0:03:54.20    \nframe=  288 fps=1.2 q=25.0 size=       1KiB time=00:00:02.39 bitrate=   1.9kbits/s speed=0.0102x elapsed=0:03:54.77    \nframe=  289 fps=1.2 q=14.0 size=       1KiB time=00:00:02.40 bitrate=   1.9kbits/s speed=0.0102x elapsed=0:03:55.35    \nframe=  290 fps=1.2 q=25.0 size=       1KiB time=00:00:02.40 bitrate=   1.9kbits/s speed=0.0102x elapsed=0:03:55.92    \nframe=  292 fps=1.2 q=25.0 size=       1KiB time=00:00:02.41 bitrate=   1.9kbits/s speed=0.0102x elapsed=0:03:56.48    \nframe=  294 fps=1.2 q=25.0 size=       1KiB time=00:00:02.44 bitrate=   1.8kbits/s speed=0.0103x elapsed=0:03:57.04    \nframe=  294 fps=1.2 q=25.0 size=       1KiB time=00:00:02.44 bitrate=   1.8kbits/s speed=0.0103x elapsed=0:03:57.61    \nframe=  295 fps=1.2 q=25.0 size=       1KiB time=00:00:02.45 bitrate=   1.8kbits/s speed=0.0103x elapsed=0:03:58.17    \nframe=  295 fps=1.2 q=25.0 size=       1KiB time=00:00:02.45 bitrate=   1.8kbits/s speed=0.0103x elapsed=0:03:58.76    \nframe=  296 fps=1.2 q=25.0 size=       1KiB time=00:00:02.45 bitrate=   1.8kbits/s speed=0.0103x elapsed=0:03:59.35    \nframe=  296 fps=1.2 q=25.0 size=       1KiB time=00:00:02.45 bitrate=   1.8kbits/s speed=0.0102x elapsed=0:03:59.94    \nframe=  298 fps=1.2 q=24.0 size=       1KiB time=00:00:02.47 bitrate=   1.8kbits/s speed=0.0103x elapsed=0:04:00.52    \nframe=  299 fps=1.2 q=22.0 size=       1KiB time=00:00:02.48 bitrate=   1.8kbits/s speed=0.0103x elapsed=0:04:01.11    \nframe=  299 fps=1.2 q=22.0 size=       1KiB time=00:00:02.48 bitrate=   1.8kbits/s speed=0.0103x elapsed=0:04:01.67    \nframe=  300 fps=1.2 q=22.0 size=       1KiB time=00:00:02.49 bitrate=   1.8kbits/s speed=0.0103x elapsed=0:04:02.24    \nframe=  302 fps=1.2 q=24.0 size=       1KiB time=00:00:02.50 bitrate=   1.8kbits/s speed=0.0103x elapsed=0:04:02.80    \nframe=  303 fps=1.2 q=22.0 size=       1KiB time=00:00:02.51 bitrate=   1.8kbits/s speed=0.0103x elapsed=0:04:03.39    \nframe=  303 fps=1.2 q=22.0 size=       1KiB time=00:00:02.51 bitrate=   1.8kbits/s speed=0.0103x elapsed=0:04:03.97    \nframe=  305 fps=1.2 q=18.0 size=       1KiB time=00:00:02.52 bitrate=   1.8kbits/s speed=0.0103x elapsed=0:04:04.55    \nframe=  306 fps=1.2 q=25.0 size=       1KiB time=00:00:02.54 bitrate=   1.8kbits/s speed=0.0104x elapsed=0:04:05.13    \nframe=  306 fps=1.2 q=25.0 size=       1KiB time=00:00:02.54 bitrate=   1.8kbits/s speed=0.0103x elapsed=0:04:05.70    \nframe=  308 fps=1.3 q=25.0 size=       1KiB time=00:00:02.55 bitrate=   1.8kbits/s speed=0.0104x elapsed=0:04:06.25    \nframe=  310 fps=1.3 q=25.0 size=       1KiB time=00:00:02.57 bitrate=   1.7kbits/s speed=0.0104x elapsed=0:04:06.81    \nframe=  310 fps=1.3 q=25.0 size=       1KiB time=00:00:02.57 bitrate=   1.7kbits/s speed=0.0104x elapsed=0:04:07.36    \nframe=  311 fps=1.3 q=24.0 size=       1KiB time=00:00:02.58 bitrate=   1.7kbits/s speed=0.0104x elapsed=0:04:07.92    \nframe=  311 fps=1.3 q=24.0 size=       1KiB time=00:00:02.58 bitrate=   1.7kbits/s speed=0.0104x elapsed=0:04:08.52    \nframe=  311 fps=1.2 q=24.0 size=       1KiB time=00:00:02.58 bitrate=   1.7kbits/s speed=0.0104x elapsed=0:04:09.09    \nframe=  313 fps=1.3 q=19.0 size=       1KiB time=00:00:02.60 bitrate=   1.7kbits/s speed=0.0104x elapsed=0:04:09.65    \nframe=  314 fps=1.3 q=24.0 size=       1KiB time=00:00:02.60 bitrate=   1.7kbits/s speed=0.0104x elapsed=0:04:10.22    \nframe=  315 fps=1.3 q=22.0 size=       1KiB time=00:00:02.61 bitrate=   1.7kbits/s speed=0.0104x elapsed=0:04:10.80    \nframe=  315 fps=1.3 q=22.0 size=       1KiB time=00:00:02.61 bitrate=   1.7kbits/s speed=0.0104x elapsed=0:04:11.36    \nframe=  316 fps=1.3 q=22.0 size=       1KiB time=00:00:02.62 bitrate=   1.7kbits/s speed=0.0104x elapsed=0:04:11.94    \nframe=  318 fps=1.3 q=24.0 size=       1KiB time=00:00:02.64 bitrate=   1.7kbits/s speed=0.0105x elapsed=0:04:12.53    \nframe=  319 fps=1.3 q=22.0 size=       1KiB time=00:00:02.65 bitrate=   1.7kbits/s speed=0.0105x elapsed=0:04:13.11    \nframe=  320 fps=1.3 q=24.0 size=       1KiB time=00:00:02.65 bitrate=   1.7kbits/s speed=0.0105x elapsed=0:04:13.68    \nframe=  321 fps=1.3 q=13.0 size=       1KiB time=00:00:02.66 bitrate=   1.7kbits/s speed=0.0105x elapsed=0:04:14.28    \nframe=  323 fps=1.3 q=24.0 size=       1KiB time=00:00:02.68 bitrate=   1.7kbits/s speed=0.0105x elapsed=0:04:14.86    \nframe=  323 fps=1.3 q=24.0 size=       1KiB time=00:00:02.68 bitrate=   1.7kbits/s speed=0.0105x elapsed=0:04:15.43    \nframe=  324 fps=1.3 q=25.0 size=       1KiB time=00:00:02.69 bitrate=   1.7kbits/s speed=0.0105x elapsed=0:04:16.01    \nframe=  325 fps=1.3 q=22.0 size=       1KiB time=00:00:02.70 bitrate=   1.7kbits/s speed=0.0105x elapsed=0:04:16.59    \nframe=  326 fps=1.3 q=25.0 size=       1KiB time=00:00:02.70 bitrate=   1.7kbits/s speed=0.0105x elapsed=0:04:17.20    \nframe=  326 fps=1.3 q=25.0 size=       1KiB time=00:00:02.70 bitrate=   1.7kbits/s speed=0.0105x elapsed=0:04:17.78    \nframe=  327 fps=1.3 q=24.0 size=       1KiB time=00:00:02.71 bitrate=   1.6kbits/s speed=0.0105x elapsed=0:04:18.36    \nframe=  327 fps=1.3 q=24.0 size=       1KiB time=00:00:02.71 bitrate=   1.6kbits/s speed=0.0105x elapsed=0:04:18.93    \nframe=  327 fps=1.3 q=24.0 size=       1KiB time=00:00:02.71 bitrate=   1.6kbits/s speed=0.0105x elapsed=0:04:19.50    \nframe=  329 fps=1.3 q=18.0 size=       1KiB time=00:00:02.73 bitrate=   1.6kbits/s speed=0.0105x elapsed=0:04:20.07    \nframe=  330 fps=1.3 q=24.0 size=       1KiB time=00:00:02.74 bitrate=   1.6kbits/s speed=0.0105x elapsed=0:04:20.65    \nframe=  331 fps=1.3 q=22.0 size=       1KiB time=00:00:02.75 bitrate=   1.6kbits/s speed=0.0105x elapsed=0:04:21.24    \nframe=  331 fps=1.3 q=22.0 size=       1KiB time=00:00:02.75 bitrate=   1.6kbits/s speed=0.0105x elapsed=0:04:21.83    \nframe=  331 fps=1.3 q=22.0 size=       1KiB time=00:00:02.75 bitrate=   1.6kbits/s speed=0.0105x elapsed=0:04:22.43    \nframe=  332 fps=1.3 q=22.0 size=       1KiB time=00:00:02.75 bitrate=   1.6kbits/s speed=0.0105x elapsed=0:04:23.02    \nframe=  334 fps=1.3 q=24.0 size=       1KiB time=00:00:02.77 bitrate=   1.6kbits/s speed=0.0105x elapsed=0:04:23.60    \nframe=  335 fps=1.3 q=22.0 size=       1KiB time=00:00:02.78 bitrate=   1.6kbits/s speed=0.0105x elapsed=0:04:24.18    \nframe=  336 fps=1.3 q=24.0 size=       1KiB time=00:00:02.79 bitrate=   1.6kbits/s speed=0.0105x elapsed=0:04:24.78    \nframe=  337 fps=1.3 q=11.0 size=       1KiB time=00:00:02.80 bitrate=   1.6kbits/s speed=0.0106x elapsed=0:04:25.37    \nframe=  338 fps=1.3 q=25.0 size=       1KiB time=00:00:02.80 bitrate=   1.6kbits/s speed=0.0106x elapsed=0:04:25.93    \nframe=  339 fps=1.3 q=24.0 size=       1KiB time=00:00:02.81 bitrate=   1.6kbits/s speed=0.0106x elapsed=0:04:26.50    \nframe=  341 fps=1.3 q=22.0 size=       1KiB time=00:00:02.83 bitrate=   1.6kbits/s speed=0.0106x elapsed=0:04:27.07    \nframe=  342 fps=1.3 q=25.0 size=       1KiB time=00:00:02.84 bitrate=   1.6kbits/s speed=0.0106x elapsed=0:04:27.66    \nframe=  342 fps=1.3 q=25.0 size=       1KiB time=00:00:02.84 bitrate=   1.6kbits/s speed=0.0106x elapsed=0:04:28.27    \nframe=  343 fps=1.3 q=24.0 size=       1KiB time=00:00:02.85 bitrate=   1.6kbits/s speed=0.0106x elapsed=0:04:28.84    \nframe=  343 fps=1.3 q=24.0 size=       1KiB time=00:00:02.85 bitrate=   1.6kbits/s speed=0.0106x elapsed=0:04:29.42    \nframe=  343 fps=1.3 q=24.0 size=       1KiB time=00:00:02.85 bitrate=   1.6kbits/s speed=0.0106x elapsed=0:04:29.99    \nframe=  346 fps=1.3 q=24.0 size=       1KiB time=00:00:02.86 bitrate=   1.6kbits/s speed=0.0106x elapsed=0:04:30.56    \nframe=  347 fps=1.3 q=22.0 size=       1KiB time=00:00:02.88 bitrate=   1.6kbits/s speed=0.0106x elapsed=0:04:31.13    \nframe=  348 fps=1.3 q=22.0 size=       1KiB time=00:00:02.89 bitrate=   1.5kbits/s speed=0.0106x elapsed=0:04:31.68    \nframe=  350 fps=1.3 q=24.0 size=       1KiB time=00:00:02.90 bitrate=   1.5kbits/s speed=0.0107x elapsed=0:04:32.25    \nframe=  352 fps=1.3 q=24.0 size=       1KiB time=00:00:02.92 bitrate=   1.5kbits/s speed=0.0107x elapsed=0:04:32.83    \nframe=  353 fps=1.3 q=13.0 size=       1KiB time=00:00:02.93 bitrate=   1.5kbits/s speed=0.0107x elapsed=0:04:33.41    \nframe=  355 fps=1.3 q=24.0 size=       1KiB time=00:00:02.94 bitrate=   1.5kbits/s speed=0.0107x elapsed=0:04:33.99    \nframe=  355 fps=1.3 q=24.0 size=       1KiB time=00:00:02.95 bitrate=   1.5kbits/s speed=0.0107x elapsed=0:04:34.56    \nframe=  355 fps=1.3 q=24.0 size=       1KiB time=00:00:02.95 bitrate=   1.5kbits/s speed=0.0107x elapsed=0:04:35.14    \nframe=  356 fps=1.3 q=25.0 size=       1KiB time=00:00:02.95 bitrate=   1.5kbits/s speed=0.0107x elapsed=0:04:35.71    \nframe=  357 fps=1.3 q=22.0 size=       1KiB time=00:00:02.96 bitrate=   1.5kbits/s speed=0.0107x elapsed=0:04:36.28    \nframe=  358 fps=1.3 q=23.0 size=       1KiB time=00:00:02.97 bitrate=   1.5kbits/s speed=0.0107x elapsed=0:04:36.84    \nframe=  359 fps=1.3 q=21.0 size=       1KiB time=00:00:02.97 bitrate=   1.5kbits/s speed=0.0107x elapsed=0:04:37.41    \nframe=  359 fps=1.3 q=21.0 size=       1KiB time=00:00:02.98 bitrate=   1.5kbits/s speed=0.0107x elapsed=0:04:37.98    \nframe=  359 fps=1.3 q=21.0 size=       1KiB time=00:00:02.98 bitrate=   1.5kbits/s speed=0.0107x elapsed=0:04:38.56    \nframe=  361 fps=1.3 q=19.0 size=       1KiB time=00:00:03.00 bitrate=   1.5kbits/s speed=0.0107x elapsed=0:04:39.13    \nframe=  362 fps=1.3 q=24.0 size=       1KiB time=00:00:03.00 bitrate=   1.5kbits/s speed=0.0108x elapsed=0:04:39.72    \nframe=  363 fps=1.3 q=23.0 size=       1KiB time=00:00:03.01 bitrate=   1.5kbits/s speed=0.0108x elapsed=0:04:40.29    \nframe=  364 fps=1.3 q=24.0 size=       1KiB time=00:00:03.01 bitrate=   1.5kbits/s speed=0.0107x elapsed=0:04:40.88    \nframe=  364 fps=1.3 q=24.0 size=       1KiB time=00:00:03.02 bitrate=   1.5kbits/s speed=0.0107x elapsed=0:04:41.45    \nframe=  365 fps=1.3 q=21.0 size=       1KiB time=00:00:03.03 bitrate=   1.5kbits/s speed=0.0108x elapsed=0:04:42.05    \nframe=  367 fps=1.3 q=23.0 size=       1KiB time=00:00:03.05 bitrate=   1.5kbits/s speed=0.0108x elapsed=0:04:42.65    \nframe=  368 fps=1.3 q=24.0 size=       1KiB time=00:00:03.05 bitrate=   1.5kbits/s speed=0.0108x elapsed=0:04:43.22    \nframe=  370 fps=1.3 q=25.0 size=       1KiB time=00:00:03.06 bitrate=   1.5kbits/s speed=0.0108x elapsed=0:04:43.82    \nframe=  370 fps=1.3 q=25.0 size=       1KiB time=00:00:03.07 bitrate=   1.5kbits/s speed=0.0108x elapsed=0:04:44.41    \nframe=  372 fps=1.3 q=25.0 size=       1KiB time=00:00:03.09 bitrate=   1.4kbits/s speed=0.0108x elapsed=0:04:44.98    \nframe=  373 fps=1.3 q=23.0 size=       1KiB time=00:00:03.10 bitrate=   1.4kbits/s speed=0.0109x elapsed=0:04:45.55    \nframe=  374 fps=1.3 q=25.0 size=       1KiB time=00:00:03.10 bitrate=   1.4kbits/s speed=0.0109x elapsed=0:04:46.12    \nframe=  374 fps=1.3 q=25.0 size=       1KiB time=00:00:03.10 bitrate=   1.4kbits/s speed=0.0108x elapsed=0:04:46.66    \nframe=  375 fps=1.3 q=24.0 size=       1KiB time=00:00:03.11 bitrate=   1.4kbits/s speed=0.0109x elapsed=0:04:47.23    \nframe=  376 fps=1.3 q=19.0 size=       1KiB time=00:00:03.11 bitrate=   1.4kbits/s speed=0.0108x elapsed=0:04:47.82    \nframe=  377 fps=1.3 q=21.0 size=       1KiB time=00:00:03.12 bitrate=   1.4kbits/s speed=0.0108x elapsed=0:04:48.40    \nframe=  378 fps=1.3 q=24.0 size=       1KiB time=00:00:03.14 bitrate=   1.4kbits/s speed=0.0109x elapsed=0:04:48.96    \nframe=  379 fps=1.3 q=22.0 size=       1KiB time=00:00:03.15 bitrate=   1.4kbits/s speed=0.0109x elapsed=0:04:49.53    \nframe=  380 fps=1.3 q=24.0 size=       1KiB time=00:00:03.15 bitrate=   1.4kbits/s speed=0.0109x elapsed=0:04:50.11    \nframe=  381 fps=1.3 q=19.0 size=       1KiB time=00:00:03.16 bitrate=   1.4kbits/s speed=0.0109x elapsed=0:04:50.70    \nframe=  383 fps=1.3 q=22.0 size=       1KiB time=00:00:03.18 bitrate=   1.4kbits/s speed=0.0109x elapsed=0:04:51.28    \nframe=  384 fps=1.3 q=24.0 size=       1KiB time=00:00:03.19 bitrate=   1.4kbits/s speed=0.0109x elapsed=0:04:51.86    \nframe=  386 fps=1.3 q=25.0 size=       1KiB time=00:00:03.20 bitrate=   1.4kbits/s speed=0.011x elapsed=0:04:52.43    \nframe=  387 fps=1.3 q=24.0 size=       1KiB time=00:00:03.21 bitrate=   1.4kbits/s speed=0.011x elapsed=0:04:53.01    \nframe=  388 fps=1.3 q=20.0 size=       1KiB time=00:00:03.21 bitrate=   1.4kbits/s speed=0.011x elapsed=0:04:53.56    \nframe=  388 fps=1.3 q=20.0 size=       1KiB time=00:00:03.22 bitrate=   1.4kbits/s speed=0.011x elapsed=0:04:54.12    \nframe=  389 fps=1.3 q=22.0 size=       1KiB time=00:00:03.23 bitrate=   1.4kbits/s speed=0.011x elapsed=0:04:54.72    \nframe=  390 fps=1.3 q=23.0 size=       1KiB time=00:00:03.24 bitrate=   1.4kbits/s speed=0.011x elapsed=0:04:55.31    \nframe=  390 fps=1.3 q=23.0 size=       1KiB time=00:00:03.24 bitrate=   1.4kbits/s speed=0.011x elapsed=0:04:55.90    \nframe=  391 fps=1.3 q=20.0 size=       1KiB time=00:00:03.25 bitrate=   1.4kbits/s speed=0.011x elapsed=0:04:56.47    \nframe=  391 fps=1.3 q=20.0 size=       1KiB time=00:00:03.25 bitrate=   1.4kbits/s speed=0.0109x elapsed=0:04:57.07    \nframe=  391 fps=1.3 q=20.0 size=       1KiB time=00:00:03.25 bitrate=   1.4kbits/s speed=0.0109x elapsed=0:04:57.64    \nframe=  393 fps=1.3 q=19.0 size=       1KiB time=00:00:03.25 bitrate=   1.4kbits/s speed=0.0109x elapsed=0:04:58.24    \nframe=  394 fps=1.3 q=24.0 size=       1KiB time=00:00:03.27 bitrate=   1.4kbits/s speed=0.011x elapsed=0:04:58.83    \nframe=  395 fps=1.3 q=23.0 size=       1KiB time=00:00:03.28 bitrate=   1.4kbits/s speed=0.011x elapsed=0:04:59.40    \nframe=  396 fps=1.3 q=23.0 size=       1KiB time=00:00:03.28 bitrate=   1.4kbits/s speed=0.0109x elapsed=0:05:00.00    \nframe=  397 fps=1.3 q=20.0 size=       1KiB time=00:00:03.30 bitrate=   1.4kbits/s speed=0.011x elapsed=0:05:00.62    \nframe=  399 fps=1.3 q=23.0 size=       1KiB time=00:00:03.31 bitrate=   1.4kbits/s speed=0.011x elapsed=0:05:01.20    \nframe=  399 fps=1.3 q=23.0 size=       1KiB time=00:00:03.31 bitrate=   1.4kbits/s speed=0.011x elapsed=0:05:01.80    \nframe=  401 fps=1.3 q=13.0 size=       1KiB time=00:00:03.33 bitrate=   1.3kbits/s speed=0.011x elapsed=0:05:02.39    \nframe=  402 fps=1.3 q=25.0 size=       1KiB time=00:00:03.34 bitrate=   1.3kbits/s speed=0.011x elapsed=0:05:02.98    \nframe=  403 fps=1.3 q=24.0 size=       1KiB time=00:00:03.35 bitrate=   1.3kbits/s speed=0.011x elapsed=0:05:03.57    \nframe=  405 fps=1.3 q=23.0 size=       1KiB time=00:00:03.36 bitrate=   1.3kbits/s speed=0.0111x elapsed=0:05:04.15    \nframe=  406 fps=1.3 q=25.0 size=       1KiB time=00:00:03.37 bitrate=   1.3kbits/s speed=0.0111x elapsed=0:05:04.70    \nframe=  406 fps=1.3 q=25.0 size=       1KiB time=00:00:03.37 bitrate=   1.3kbits/s speed=0.0111x elapsed=0:05:05.28    \nframe=  407 fps=1.3 q=24.0 size=       1KiB time=00:00:03.38 bitrate=   1.3kbits/s speed=0.0111x elapsed=0:05:05.84    \nframe=  407 fps=1.3 q=24.0 size=       1KiB time=00:00:03.38 bitrate=   1.3kbits/s speed=0.011x elapsed=0:05:06.43    \nframe=  408 fps=1.3 q=25.0 size=       1KiB time=00:00:03.39 bitrate=   1.3kbits/s speed=0.011x elapsed=0:05:07.00    \nframe=  410 fps=1.3 q=24.0 size=       1KiB time=00:00:03.40 bitrate=   1.3kbits/s speed=0.0111x elapsed=0:05:07.57    \nframe=  411 fps=1.3 q=22.0 size=       1KiB time=00:00:03.41 bitrate=   1.3kbits/s speed=0.0111x elapsed=0:05:08.15    \nframe=  412 fps=1.3 q=22.0 size=       1KiB time=00:00:03.42 bitrate=   1.3kbits/s speed=0.0111x elapsed=0:05:08.73    \nframe=  413 fps=1.3 q=19.0 size=       1KiB time=00:00:03.43 bitrate=   1.3kbits/s speed=0.0111x elapsed=0:05:09.30    \nframe=  415 fps=1.3 q=22.0 size=       1KiB time=00:00:03.45 bitrate=   1.3kbits/s speed=0.0111x elapsed=0:05:09.86    \nframe=  415 fps=1.3 q=22.0 size=       1KiB time=00:00:03.45 bitrate=   1.3kbits/s speed=0.0111x elapsed=0:05:10.42    \nframe=  417 fps=1.3 q=15.0 size=       1KiB time=00:00:03.46 bitrate=   1.3kbits/s speed=0.0111x elapsed=0:05:10.99    \nframe=  418 fps=1.3 q=25.0 size=       1KiB time=00:00:03.47 bitrate=   1.3kbits/s speed=0.0112x elapsed=0:05:11.53    \nframe=  420 fps=1.3 q=25.0 size=       1KiB time=00:00:03.49 bitrate=   1.3kbits/s speed=0.0112x elapsed=0:05:12.09    \nframe=  421 fps=1.3 q=22.0 size=       1KiB time=00:00:03.50 bitrate=   1.3kbits/s speed=0.0112x elapsed=0:05:12.64    \nframe=  421 fps=1.3 q=22.0 size=       1KiB time=00:00:03.50 bitrate=   1.3kbits/s speed=0.0112x elapsed=0:05:13.21    \nframe=  422 fps=1.3 q=25.0 size=       1KiB time=00:00:03.50 bitrate=   1.3kbits/s speed=0.0112x elapsed=0:05:13.76    \nframe=  423 fps=1.3 q=24.0 size=       1KiB time=00:00:03.51 bitrate=   1.3kbits/s speed=0.0112x elapsed=0:05:14.33    \nframe=  424 fps=1.3 q=25.0 size=       1KiB time=00:00:03.52 bitrate=   1.3kbits/s speed=0.0112x elapsed=0:05:14.91    \nframe=  425 fps=1.3 q=19.0 size=       1KiB time=00:00:03.53 bitrate=   1.3kbits/s speed=0.0112x elapsed=0:05:15.47    \nframe=  427 fps=1.4 q=24.0 size=       1KiB time=00:00:03.55 bitrate=   1.3kbits/s speed=0.0112x elapsed=0:05:16.03    \nframe=  428 fps=1.4 q=25.0 size=       1KiB time=00:00:03.55 bitrate=   1.3kbits/s speed=0.0112x elapsed=0:05:16.58    \nframe=  429 fps=1.4 q=22.0 size=       1KiB time=00:00:03.56 bitrate=   1.3kbits/s speed=0.0112x elapsed=0:05:17.14    \nframe=  431 fps=1.4 q=19.0 size=       1KiB time=00:00:03.58 bitrate=   1.3kbits/s speed=0.0113x elapsed=0:05:17.71    \nframe=  432 fps=1.4 q=22.0 size=       1KiB time=00:00:03.59 bitrate=   1.2kbits/s speed=0.0113x elapsed=0:05:18.28    \nframe=  433 fps=1.4 q=13.0 size=       1KiB time=00:00:03.60 bitrate=   1.2kbits/s speed=0.0113x elapsed=0:05:18.84    \nframe=  434 fps=1.4 q=25.0 size=       1KiB time=00:00:03.60 bitrate=   1.2kbits/s speed=0.0113x elapsed=0:05:19.43    \nframe=  434 fps=1.4 q=25.0 size=       1KiB time=00:00:03.60 bitrate=   1.2kbits/s speed=0.0113x elapsed=0:05:20.02    \nframe=  435 fps=1.4 q=24.0 size=       1KiB time=00:00:03.61 bitrate=   1.2kbits/s speed=0.0113x elapsed=0:05:20.59    \nframe=  436 fps=1.4 q=25.0 size=       1KiB time=00:00:03.62 bitrate=   1.2kbits/s speed=0.0113x elapsed=0:05:21.16    \nframe=  437 fps=1.4 q=22.0 size=       1KiB time=00:00:03.63 bitrate=   1.2kbits/s speed=0.0113x elapsed=0:05:21.74    \nframe=  438 fps=1.4 q=25.0 size=       1KiB time=00:00:03.64 bitrate=   1.2kbits/s speed=0.0113x elapsed=0:05:22.32    \nframe=  439 fps=1.4 q=24.0 size=       1KiB time=00:00:03.65 bitrate=   1.2kbits/s speed=0.0113x elapsed=0:05:22.89    \nframe=  439 fps=1.4 q=24.0 size=       1KiB time=00:00:03.65 bitrate=   1.2kbits/s speed=0.0113x elapsed=0:05:23.46    \nframe=  440 fps=1.4 q=25.0 size=       1KiB time=00:00:03.65 bitrate=   1.2kbits/s speed=0.0113x elapsed=0:05:24.03    \nframe=  443 fps=1.4 q=24.0 size=       1KiB time=00:00:03.67 bitrate=   1.2kbits/s speed=0.0113x elapsed=0:05:24.60    \nframe=  443 fps=1.4 q=24.0 size=       1KiB time=00:00:03.68 bitrate=   1.2kbits/s speed=0.0113x elapsed=0:05:25.18    \nframe=  444 fps=1.4 q=25.0 size=       1KiB time=00:00:03.69 bitrate=   1.2kbits/s speed=0.0113x elapsed=0:05:25.75    \nframe=  447 fps=1.4 q=22.0 size=       1KiB time=00:00:03.71 bitrate=   1.2kbits/s speed=0.0114x elapsed=0:05:26.32    \nframe=  447 fps=1.4 q=22.0 size=       1KiB time=00:00:03.71 bitrate=   1.2kbits/s speed=0.0114x elapsed=0:05:26.89    \nframe=  448 fps=1.4 q=24.0 size=       1KiB time=00:00:03.72 bitrate=   1.2kbits/s speed=0.0114x elapsed=0:05:27.46    \nframe=  450 fps=1.4 q=25.0 size=       1KiB time=00:00:03.74 bitrate=   1.2kbits/s speed=0.0114x elapsed=0:05:28.04    \nframe=  450 fps=1.4 q=25.0 size=       1KiB time=00:00:03.74 bitrate=   1.2kbits/s speed=0.0114x elapsed=0:05:28.60    \nframe=  451 fps=1.4 q=24.0 size=       1KiB time=00:00:03.75 bitrate=   1.2kbits/s speed=0.0114x elapsed=0:05:29.17    \nframe=  452 fps=1.4 q=25.0 size=       1KiB time=00:00:03.75 bitrate=   1.2kbits/s speed=0.0114x elapsed=0:05:29.74    \nframe=  453 fps=1.4 q=22.0 size=       1KiB time=00:00:03.76 bitrate=   1.2kbits/s speed=0.0114x elapsed=0:05:30.29    \nframe=  454 fps=1.4 q=25.0 size=       1KiB time=00:00:03.77 bitrate=   1.2kbits/s speed=0.0114x elapsed=0:05:30.83    \nframe=  454 fps=1.4 q=25.0 size=       1KiB time=00:00:03.77 bitrate=   1.2kbits/s speed=0.0114x elapsed=0:05:31.39    \nframe=  455 fps=1.4 q=24.0 size=       1KiB time=00:00:03.78 bitrate=   1.2kbits/s speed=0.0114x elapsed=0:05:31.96    \nframe=  456 fps=1.4 q=25.0 size=       1KiB time=00:00:03.79 bitrate=   1.2kbits/s speed=0.0114x elapsed=0:05:32.57    \nframe=  458 fps=1.4 q=25.0 size=       1KiB time=00:00:03.80 bitrate=   1.2kbits/s speed=0.0114x elapsed=0:05:33.17    \nframe=  458 fps=1.4 q=25.0 size=       1KiB time=00:00:03.80 bitrate=   1.2kbits/s speed=0.0114x elapsed=0:05:33.74    \nframe=  459 fps=1.4 q=24.0 size=       1KiB time=00:00:03.81 bitrate=   1.2kbits/s speed=0.0114x elapsed=0:05:34.33    \nframe=  461 fps=1.4 q=22.0 size=       1KiB time=00:00:03.83 bitrate=   1.2kbits/s speed=0.0114x elapsed=0:05:34.90    \nframe=  462 fps=1.4 q=22.0 size=       1KiB time=00:00:03.84 bitrate=   1.2kbits/s speed=0.0115x elapsed=0:05:35.47    \nframe=  462 fps=1.4 q=22.0 size=       1KiB time=00:00:03.84 bitrate=   1.2kbits/s speed=0.0114x elapsed=0:05:36.03    \nframe=  463 fps=1.4 q=19.0 size=       1KiB time=00:00:03.85 bitrate=   1.2kbits/s speed=0.0114x elapsed=0:05:36.59    \nframe=  463 fps=1.4 q=19.0 size=       1KiB time=00:00:03.85 bitrate=   1.2kbits/s speed=0.0114x elapsed=0:05:37.15    \nframe=  464 fps=1.4 q=22.0 size=       1KiB time=00:00:03.85 bitrate=   1.2kbits/s speed=0.0114x elapsed=0:05:37.71    \nframe=  465 fps=1.4 q=13.0 size=       1KiB time=00:00:03.86 bitrate=   1.2kbits/s speed=0.0114x elapsed=0:05:38.27    \nframe=  466 fps=1.4 q=25.0 size=       1KiB time=00:00:03.87 bitrate=   1.2kbits/s speed=0.0114x elapsed=0:05:38.85    \nframe=  466 fps=1.4 q=25.0 size=       1KiB time=00:00:03.87 bitrate=   1.2kbits/s speed=0.0114x elapsed=0:05:39.44    \nframe=  467 fps=1.4 q=24.0 size=       1KiB time=00:00:03.88 bitrate=   1.2kbits/s speed=0.0114x elapsed=0:05:40.00    \nframe=  469 fps=1.4 q=22.0 size=       1KiB time=00:00:03.90 bitrate=   1.1kbits/s speed=0.0115x elapsed=0:05:40.56    \nframe=  469 fps=1.4 q=22.0 size=       1KiB time=00:00:03.90 bitrate=   1.1kbits/s speed=0.0114x elapsed=0:05:41.11    \nframe=  471 fps=1.4 q=24.0 size=       1KiB time=00:00:03.91 bitrate=   1.1kbits/s speed=0.0115x elapsed=0:05:41.67    \nframe=  471 fps=1.4 q=24.0 size=       1KiB time=00:00:03.91 bitrate=   1.1kbits/s speed=0.0114x elapsed=0:05:42.24    \nframe=  471 fps=1.4 q=24.0 size=       1KiB time=00:00:03.91 bitrate=   1.1kbits/s speed=0.0114x elapsed=0:05:42.85    \nframe=  471 fps=1.4 q=24.0 size=       1KiB time=00:00:03.91 bitrate=   1.1kbits/s speed=0.0114x elapsed=0:05:43.43    \nframe=  472 fps=1.4 q=25.0 size=       1KiB time=00:00:03.92 bitrate=   1.1kbits/s speed=0.0114x elapsed=0:05:44.03    \nframe=  473 fps=1.4 q=19.0 size=       1KiB time=00:00:03.93 bitrate=   1.1kbits/s speed=0.0114x elapsed=0:05:44.61    \nframe=  474 fps=1.4 q=25.0 size=       1KiB time=00:00:03.94 bitrate=   1.1kbits/s speed=0.0114x elapsed=0:05:45.18    \nframe=  475 fps=1.4 q=24.0 size=       1KiB time=00:00:03.95 bitrate=   1.1kbits/s speed=0.0114x elapsed=0:05:45.74    \nframe=  475 fps=1.4 q=24.0 size=       1KiB time=00:00:03.95 bitrate=   1.1kbits/s speed=0.0114x elapsed=0:05:46.33    \nframe=  476 fps=1.4 q=25.0 size=       1KiB time=00:00:03.95 bitrate=   1.1kbits/s speed=0.0114x elapsed=0:05:46.90    \nframe=  477 fps=1.4 q=22.0 size=       1KiB time=00:00:03.96 bitrate=   1.1kbits/s speed=0.0114x elapsed=0:05:47.49    \nframe=  479 fps=1.4 q=22.0 size=       1KiB time=00:00:03.98 bitrate=   1.1kbits/s speed=0.0114x elapsed=0:05:48.09    \nframe=  479 fps=1.4 q=22.0 size=       1KiB time=00:00:03.98 bitrate=   1.1kbits/s speed=0.0114x elapsed=0:05:48.69    \nframe=  479 fps=1.4 q=22.0 size=       1KiB time=00:00:03.98 bitrate=   1.1kbits/s speed=0.0114x elapsed=0:05:49.29    \nframe=  480 fps=1.4 q=24.0 size=       1KiB time=00:00:03.99 bitrate=   1.1kbits/s speed=0.0114x elapsed=0:05:49.89    \nframe=  481 fps=1.4 q=13.0 size=       1KiB time=00:00:04.00 bitrate=   1.1kbits/s speed=0.0114x elapsed=0:05:50.53    \nframe=  482 fps=1.4 q=25.0 size=       1KiB time=00:00:04.00 bitrate=   1.1kbits/s speed=0.0114x elapsed=0:05:51.16    \nframe=  482 fps=1.4 q=25.0 size=       1KiB time=00:00:04.00 bitrate=   1.1kbits/s speed=0.0114x elapsed=0:05:51.77    \nframe=  483 fps=1.4 q=24.0 size=       1KiB time=00:00:04.01 bitrate=   1.1kbits/s speed=0.0114x elapsed=0:05:52.34    \nframe=  484 fps=1.4 q=25.0 size=       1KiB time=00:00:04.02 bitrate=   1.1kbits/s speed=0.0114x elapsed=0:05:52.93    \nframe=  485 fps=1.4 q=22.0 size=       1KiB time=00:00:04.03 bitrate=   1.1kbits/s speed=0.0114x elapsed=0:05:53.54    \nframe=  485 fps=1.4 q=22.0 size=       1KiB time=00:00:04.03 bitrate=   1.1kbits/s speed=0.0114x elapsed=0:05:54.11    \nframe=  486 fps=1.4 q=25.0 size=       1KiB time=00:00:04.04 bitrate=   1.1kbits/s speed=0.0114x elapsed=0:05:54.67    \nframe=  486 fps=1.4 q=25.0 size=       1KiB time=00:00:04.04 bitrate=   1.1kbits/s speed=0.0114x elapsed=0:05:55.27    \nframe=  488 fps=1.4 q=25.0 size=       1KiB time=00:00:04.05 bitrate=   1.1kbits/s speed=0.0114x elapsed=0:05:55.85    \nframe=  489 fps=1.4 q=18.0 size=       1KiB time=00:00:04.06 bitrate=   1.1kbits/s speed=0.0114x elapsed=0:05:56.44    \nframe=  489 fps=1.4 q=18.0 size=       1KiB time=00:00:04.06 bitrate=   1.1kbits/s speed=0.0114x elapsed=0:05:57.01    \nframe=  490 fps=1.4 q=25.0 size=       1KiB time=00:00:04.07 bitrate=   1.1kbits/s speed=0.0114x elapsed=0:05:57.60    \nframe=  491 fps=1.4 q=24.0 size=       1KiB time=00:00:04.08 bitrate=   1.1kbits/s speed=0.0114x elapsed=0:05:58.16    \nframe=  492 fps=1.4 q=17.0 size=       1KiB time=00:00:04.09 bitrate=   1.1kbits/s speed=0.0114x elapsed=0:05:58.72    \nframe=  494 fps=1.4 q=21.0 size=       1KiB time=00:00:04.10 bitrate=   1.1kbits/s speed=0.0114x elapsed=0:05:59.28    \nframe=  495 fps=1.4 q=17.0 size=       1KiB time=00:00:04.11 bitrate=   1.1kbits/s speed=0.0114x elapsed=0:05:59.86    \nframe=  496 fps=1.4 q=21.0 size=       1KiB time=00:00:04.11 bitrate=   1.1kbits/s speed=0.0114x elapsed=0:06:00.44    \nframe=  496 fps=1.4 q=21.0 size=       1KiB time=00:00:04.12 bitrate=   1.1kbits/s speed=0.0114x elapsed=0:06:01.02    \nframe=  497 fps=1.4 q=11.0 size=       1KiB time=00:00:04.13 bitrate=   1.1kbits/s speed=0.0114x elapsed=0:06:01.60    \nframe=  498 fps=1.4 q=24.0 size=       1KiB time=00:00:04.14 bitrate=   1.1kbits/s speed=0.0114x elapsed=0:06:02.18    \nframe=  498 fps=1.4 q=24.0 size=       1KiB time=00:00:04.14 bitrate=   1.1kbits/s speed=0.0114x elapsed=0:06:02.78    \nframe=  499 fps=1.4 q=23.0 size=       1KiB time=00:00:04.15 bitrate=   1.1kbits/s speed=0.0114x elapsed=0:06:03.36    \nframe=  500 fps=1.4 q=24.0 size=       1KiB time=00:00:04.15 bitrate=   1.1kbits/s speed=0.0114x elapsed=0:06:03.96    \nframe=  501 fps=1.4 q=21.0 size=       1KiB time=00:00:04.16 bitrate=   1.1kbits/s speed=0.0114x elapsed=0:06:04.51    \nframe=  501 fps=1.4 q=21.0 size=       1KiB time=00:00:04.16 bitrate=   1.1kbits/s speed=0.0114x elapsed=0:06:05.08    \nframe=  502 fps=1.4 q=24.0 size=       1KiB time=00:00:04.17 bitrate=   1.1kbits/s speed=0.0114x elapsed=0:06:05.64    \nframe=  502 fps=1.4 q=24.0 size=       1KiB time=00:00:04.17 bitrate=   1.1kbits/s speed=0.0114x elapsed=0:06:06.21    \nframe=  502 fps=1.4 q=24.0 size=       1KiB time=00:00:04.17 bitrate=   1.1kbits/s speed=0.0114x elapsed=0:06:06.79    \nframe=  505 fps=1.4 q=17.0 size=       1KiB time=00:00:04.20 bitrate=   1.1kbits/s speed=0.0114x elapsed=0:06:07.36    \nframe=  507 fps=1.4 q=23.0 size=       1KiB time=00:00:04.21 bitrate=   1.1kbits/s speed=0.0115x elapsed=0:06:07.93    \nframe=  509 fps=1.4 q=21.0 size=       1KiB time=00:00:04.23 bitrate=   1.1kbits/s speed=0.0115x elapsed=0:06:08.52    \nframe=  509 fps=1.4 q=21.0 size=       1KiB time=00:00:04.23 bitrate=   1.1kbits/s speed=0.0115x elapsed=0:06:09.09    \nframe=  509 fps=1.4 q=21.0 size=       1KiB time=00:00:04.23 bitrate=   1.1kbits/s speed=0.0115x elapsed=0:06:09.66    \nframe=  511 fps=1.4 q=18.0 size=       1KiB time=00:00:04.23 bitrate=   1.1kbits/s speed=0.0114x elapsed=0:06:10.22    \nframe=  513 fps=1.4 q=9.0 size=       1KiB time=00:00:04.25 bitrate=   1.1kbits/s speed=0.0115x elapsed=0:06:10.81    \nframe=  513 fps=1.4 q=9.0 size=       1KiB time=00:00:04.26 bitrate=   1.0kbits/s speed=0.0115x elapsed=0:06:11.41    \nframe=  513 fps=1.4 q=9.0 size=       1KiB time=00:00:04.26 bitrate=   1.0kbits/s speed=0.0115x elapsed=0:06:12.02    \nframe=  513 fps=1.4 q=9.0 size=       1KiB time=00:00:04.26 bitrate=   1.0kbits/s speed=0.0115x elapsed=0:06:12.61    \nframe=  515 fps=1.4 q=24.0 size=       1KiB time=00:00:04.28 bitrate=   1.0kbits/s speed=0.0115x elapsed=0:06:13.20    \nframe=  517 fps=1.4 q=22.0 size=       1KiB time=00:00:04.30 bitrate=   1.0kbits/s speed=0.0115x elapsed=0:06:13.80    \nframe=  517 fps=1.4 q=22.0 size=       1KiB time=00:00:04.30 bitrate=   1.0kbits/s speed=0.0115x elapsed=0:06:14.38    \nframe=  517 fps=1.4 q=22.0 size=       1KiB time=00:00:04.30 bitrate=   1.0kbits/s speed=0.0115x elapsed=0:06:14.97    \nframe=  517 fps=1.4 q=22.0 size=       1KiB time=00:00:04.30 bitrate=   1.0kbits/s speed=0.0114x elapsed=0:06:15.55    \nframe=  519 fps=1.4 q=24.0 size=       1KiB time=00:00:04.31 bitrate=   1.0kbits/s speed=0.0115x elapsed=0:06:16.12    \nframe=  521 fps=1.4 q=18.0 size=       1KiB time=00:00:04.33 bitrate=   1.0kbits/s speed=0.0115x elapsed=0:06:16.66    \nframe=  521 fps=1.4 q=18.0 size=       1KiB time=00:00:04.33 bitrate=   1.0kbits/s speed=0.0115x elapsed=0:06:17.22    \nframe=  521 fps=1.4 q=18.0 size=       1KiB time=00:00:04.33 bitrate=   1.0kbits/s speed=0.0115x elapsed=0:06:17.78    \nframe=  521 fps=1.4 q=18.0 size=       1KiB time=00:00:04.33 bitrate=   1.0kbits/s speed=0.0115x elapsed=0:06:18.37    \nframe=  521 fps=1.4 q=18.0 size=       1KiB time=00:00:04.33 bitrate=   1.0kbits/s speed=0.0114x elapsed=0:06:18.98    \nframe=  521 fps=1.4 q=18.0 size=       1KiB time=00:00:04.33 bitrate=   1.0kbits/s speed=0.0114x elapsed=0:06:19.55    \nframe=  523 fps=1.4 q=24.0 size=       1KiB time=00:00:04.35 bitrate=   1.0kbits/s speed=0.0114x elapsed=0:06:20.14    \nframe=  523 fps=1.4 q=24.0 size=       1KiB time=00:00:04.35 bitrate=   1.0kbits/s speed=0.0114x elapsed=0:06:20.73    \nframe=  525 fps=1.4 q=22.0 size=       1KiB time=00:00:04.36 bitrate=   1.0kbits/s speed=0.0115x elapsed=0:06:21.34    \nframe=  525 fps=1.4 q=22.0 size=       1KiB time=00:00:04.36 bitrate=   1.0kbits/s speed=0.0114x elapsed=0:06:21.91    \nframe=  527 fps=1.4 q=22.0 size=       1KiB time=00:00:04.38 bitrate=   1.0kbits/s speed=0.0115x elapsed=0:06:22.47    \nframe=  527 fps=1.4 q=22.0 size=       1KiB time=00:00:04.38 bitrate=   1.0kbits/s speed=0.0114x elapsed=0:06:23.04    \nframe=  529 fps=1.4 q=11.0 size=       1KiB time=00:00:04.40 bitrate=   1.0kbits/s speed=0.0115x elapsed=0:06:23.61    \nframe=  529 fps=1.4 q=11.0 size=       1KiB time=00:00:04.40 bitrate=   1.0kbits/s speed=0.0115x elapsed=0:06:24.19    \nframe=  529 fps=1.4 q=11.0 size=       1KiB time=00:00:04.40 bitrate=   1.0kbits/s speed=0.0114x elapsed=0:06:24.75    \nframe=  531 fps=1.4 q=24.0 size=       1KiB time=00:00:04.40 bitrate=   1.0kbits/s speed=0.0114x elapsed=0:06:25.34    \nframe=  533 fps=1.4 q=22.0 size=       1KiB time=00:00:04.43 bitrate=   1.0kbits/s speed=0.0115x elapsed=0:06:25.89    \nframe=  533 fps=1.4 q=22.0 size=       1KiB time=00:00:04.43 bitrate=   1.0kbits/s speed=0.0115x elapsed=0:06:26.46    \nframe=  533 fps=1.4 q=22.0 size=       1KiB time=00:00:04.43 bitrate=   1.0kbits/s speed=0.0115x elapsed=0:06:27.04    \nframe=  533 fps=1.4 q=22.0 size=       1KiB time=00:00:04.43 bitrate=   1.0kbits/s speed=0.0114x elapsed=0:06:27.61    \nframe=  533 fps=1.4 q=22.0 size=       1KiB time=00:00:04.43 bitrate=   1.0kbits/s speed=0.0114x elapsed=0:06:28.22    \nframe=  535 fps=1.4 q=24.0 size=       1KiB time=00:00:04.45 bitrate=   1.0kbits/s speed=0.0114x elapsed=0:06:28.81    \nframe=  537 fps=1.4 q=19.0 size=       1KiB time=00:00:04.46 bitrate=   1.0kbits/s speed=0.0115x elapsed=0:06:29.41    \nframe=  537 fps=1.4 q=19.0 size=       1KiB time=00:00:04.46 bitrate=   1.0kbits/s speed=0.0115x elapsed=0:06:29.99    \nframe=  537 fps=1.4 q=19.0 size=       1KiB time=00:00:04.46 bitrate=   1.0kbits/s speed=0.0114x elapsed=0:06:30.56    \nframe=  537 fps=1.4 q=19.0 size=       1KiB time=00:00:04.46 bitrate=   1.0kbits/s speed=0.0114x elapsed=0:06:31.12    \nframe=  537 fps=1.4 q=19.0 size=       1KiB time=00:00:04.46 bitrate=   1.0kbits/s speed=0.0114x elapsed=0:06:31.70    \nframe=  537 fps=1.4 q=19.0 size=       1KiB time=00:00:04.46 bitrate=   1.0kbits/s speed=0.0114x elapsed=0:06:32.28    \nframe=  539 fps=1.4 q=24.0 size=       1KiB time=00:00:04.48 bitrate=   1.0kbits/s speed=0.0114x elapsed=0:06:32.85    \nframe=  541 fps=1.4 q=22.0 size=       1KiB time=00:00:04.50 bitrate=   1.0kbits/s speed=0.0114x elapsed=0:06:33.44    \nframe=  541 fps=1.4 q=22.0 size=       1KiB time=00:00:04.50 bitrate=   1.0kbits/s speed=0.0114x elapsed=0:06:34.03    \nframe=  541 fps=1.4 q=22.0 size=       1KiB time=00:00:04.50 bitrate=   1.0kbits/s speed=0.0114x elapsed=0:06:34.59    \nframe=  541 fps=1.4 q=22.0 size=       1KiB time=00:00:04.50 bitrate=   1.0kbits/s speed=0.0114x elapsed=0:06:35.16    \nframe=  543 fps=1.4 q=19.0 size=       1KiB time=00:00:04.51 bitrate=   1.0kbits/s speed=0.0114x elapsed=0:06:35.73    \nframe=  545 fps=1.4 q=12.0 size=       1KiB time=00:00:04.53 bitrate=   1.0kbits/s speed=0.0114x elapsed=0:06:36.30    \nframe=  545 fps=1.4 q=12.0 size=       1KiB time=00:00:04.53 bitrate=   1.0kbits/s speed=0.0114x elapsed=0:06:36.87    \nframe=  545 fps=1.4 q=12.0 size=       1KiB time=00:00:04.53 bitrate=   1.0kbits/s speed=0.0114x elapsed=0:06:37.45    \nframe=  545 fps=1.4 q=12.0 size=       1KiB time=00:00:04.53 bitrate=   1.0kbits/s speed=0.0114x elapsed=0:06:38.03    \nframe=  545 fps=1.4 q=12.0 size=       1KiB time=00:00:04.53 bitrate=   1.0kbits/s speed=0.0114x elapsed=0:06:38.64    \nframe=  547 fps=1.4 q=23.0 size=       1KiB time=00:00:04.53 bitrate=   1.0kbits/s speed=0.0114x elapsed=0:06:39.26    \nframe=  549 fps=1.4 q=22.0 size=       1KiB time=00:00:04.56 bitrate=   1.0kbits/s speed=0.0114x elapsed=0:06:39.87    \nframe=  549 fps=1.4 q=22.0 size=       1KiB time=00:00:04.56 bitrate=   1.0kbits/s speed=0.0114x elapsed=0:06:40.44    \nframe=  549 fps=1.4 q=22.0 size=       1KiB time=00:00:04.56 bitrate=   1.0kbits/s speed=0.0114x elapsed=0:06:41.04    \nframe=  549 fps=1.4 q=22.0 size=       1KiB time=00:00:04.56 bitrate=   1.0kbits/s speed=0.0114x elapsed=0:06:41.63    \nframe=  549 fps=1.4 q=22.0 size=       1KiB time=00:00:04.56 bitrate=   1.0kbits/s speed=0.0114x elapsed=0:06:42.24    \nframe=  549 fps=1.4 q=22.0 size=       1KiB time=00:00:04.56 bitrate=   1.0kbits/s speed=0.0113x elapsed=0:06:42.84    \nframe=  553 fps=1.4 q=19.0 size=       1KiB time=00:00:04.58 bitrate=   1.0kbits/s speed=0.0114x elapsed=0:06:43.45    \nframe=  553 fps=1.4 q=19.0 size=       1KiB time=00:00:04.60 bitrate=   1.0kbits/s speed=0.0114x elapsed=0:06:44.05    \nframe=  553 fps=1.4 q=19.0 size=       1KiB time=00:00:04.60 bitrate=   1.0kbits/s speed=0.0114x elapsed=0:06:44.65    \nframe=  553 fps=1.4 q=19.0 size=       1KiB time=00:00:04.60 bitrate=   1.0kbits/s speed=0.0114x elapsed=0:06:45.23    \nframe=  553 fps=1.4 q=19.0 size=       1KiB time=00:00:04.60 bitrate=   1.0kbits/s speed=0.0113x elapsed=0:06:45.80    \nframe=  553 fps=1.4 q=19.0 size=       1KiB time=00:00:04.60 bitrate=   1.0kbits/s speed=0.0113x elapsed=0:06:46.37    \nframe=  553 fps=1.4 q=19.0 size=       1KiB time=00:00:04.60 bitrate=   1.0kbits/s speed=0.0113x elapsed=0:06:46.92    \nframe=  555 fps=1.4 q=23.0 size=       1KiB time=00:00:04.60 bitrate=   1.0kbits/s speed=0.0113x elapsed=0:06:47.48    \nframe=  555 fps=1.4 q=23.0 size=       1KiB time=00:00:04.61 bitrate=   1.0kbits/s speed=0.0113x elapsed=0:06:48.05    \nframe=  557 fps=1.4 q=22.0 size=       1KiB time=00:00:04.63 bitrate=   1.0kbits/s speed=0.0113x elapsed=0:06:48.62    \nframe=  557 fps=1.4 q=22.0 size=       1KiB time=00:00:04.63 bitrate=   1.0kbits/s speed=0.0113x elapsed=0:06:49.17    \nframe=  557 fps=1.4 q=22.0 size=       1KiB time=00:00:04.63 bitrate=   1.0kbits/s speed=0.0113x elapsed=0:06:49.73    \nframe=  557 fps=1.4 q=22.0 size=       1KiB time=00:00:04.63 bitrate=   1.0kbits/s speed=0.0113x elapsed=0:06:50.31    \nframe=  559 fps=1.4 q=18.0 size=       1KiB time=00:00:04.65 bitrate=   1.0kbits/s speed=0.0113x elapsed=0:06:50.90    \nframe=  561 fps=1.4 q=12.0 size=       1KiB time=00:00:04.65 bitrate=   1.0kbits/s speed=0.0113x elapsed=0:06:51.47    \nframe=  561 fps=1.4 q=12.0 size=       1KiB time=00:00:04.66 bitrate=   1.0kbits/s speed=0.0113x elapsed=0:06:52.04    \nframe=  561 fps=1.4 q=12.0 size=       1KiB time=00:00:04.66 bitrate=   1.0kbits/s speed=0.0113x elapsed=0:06:52.62    \nframe=  561 fps=1.4 q=12.0 size=       1KiB time=00:00:04.66 bitrate=   1.0kbits/s speed=0.0113x elapsed=0:06:53.20    \nframe=  561 fps=1.4 q=12.0 size=       1KiB time=00:00:04.66 bitrate=   1.0kbits/s speed=0.0113x elapsed=0:06:53.76    \nframe=  563 fps=1.4 q=23.0 size=       1KiB time=00:00:04.68 bitrate=   1.0kbits/s speed=0.0113x elapsed=0:06:54.32    \nframe=  565 fps=1.4 q=21.0 size=       1KiB time=00:00:04.70 bitrate=   1.0kbits/s speed=0.0113x elapsed=0:06:54.92    \nframe=  565 fps=1.4 q=21.0 size=       1KiB time=00:00:04.70 bitrate=   1.0kbits/s speed=0.0113x elapsed=0:06:55.51    \nframe=  565 fps=1.4 q=21.0 size=       1KiB time=00:00:04.70 bitrate=   1.0kbits/s speed=0.0113x elapsed=0:06:56.10    \nframe=  565 fps=1.4 q=21.0 size=       1KiB time=00:00:04.70 bitrate=   1.0kbits/s speed=0.0113x elapsed=0:06:56.68    \nframe=  567 fps=1.4 q=23.0 size=       1KiB time=00:00:04.71 bitrate=   0.9kbits/s speed=0.0113x elapsed=0:06:57.23    \nframe=  567 fps=1.4 q=23.0 size=       1KiB time=00:00:04.71 bitrate=   0.9kbits/s speed=0.0113x elapsed=0:06:57.80    \nframe=  569 fps=1.4 q=17.0 size=       1KiB time=00:00:04.73 bitrate=   0.9kbits/s speed=0.0113x elapsed=0:06:58.35    \nframe=  569 fps=1.4 q=17.0 size=       1KiB time=00:00:04.73 bitrate=   0.9kbits/s speed=0.0113x elapsed=0:06:58.93    \nframe=  569 fps=1.4 q=17.0 size=       1KiB time=00:00:04.73 bitrate=   0.9kbits/s speed=0.0113x elapsed=0:06:59.50    \nframe=  569 fps=1.4 q=17.0 size=       1KiB time=00:00:04.73 bitrate=   0.9kbits/s speed=0.0113x elapsed=0:07:00.08    \nframe=  569 fps=1.4 q=17.0 size=       1KiB time=00:00:04.73 bitrate=   0.9kbits/s speed=0.0113x elapsed=0:07:00.66    \nframe=  569 fps=1.4 q=17.0 size=       1KiB time=00:00:04.73 bitrate=   0.9kbits/s speed=0.0112x elapsed=0:07:01.24    \nframe=  569 fps=1.3 q=17.0 size=       1KiB time=00:00:04.73 bitrate=   0.9kbits/s speed=0.0112x elapsed=0:07:01.81    \nframe=  569 fps=1.3 q=17.0 size=       1KiB time=00:00:04.73 bitrate=   0.9kbits/s speed=0.0112x elapsed=0:07:02.38    \nframe=  573 fps=1.4 q=18.0 size=       1KiB time=00:00:04.75 bitrate=   0.9kbits/s speed=0.0112x elapsed=0:07:02.95    \nframe=  573 fps=1.4 q=18.0 size=       1KiB time=00:00:04.76 bitrate=   0.9kbits/s speed=0.0113x elapsed=0:07:03.55    \nframe=  573 fps=1.4 q=18.0 size=       1KiB time=00:00:04.76 bitrate=   0.9kbits/s speed=0.0112x elapsed=0:07:04.13    \nframe=  575 fps=1.4 q=27.0 size=       1KiB time=00:00:04.78 bitrate=   0.9kbits/s speed=0.0113x elapsed=0:07:04.71    \nframe=  577 fps=1.4 q=10.0 size=       1KiB time=00:00:04.80 bitrate=   0.9kbits/s speed=0.0113x elapsed=0:07:05.28    \nframe=  577 fps=1.4 q=10.0 size=       1KiB time=00:00:04.80 bitrate=   0.9kbits/s speed=0.0113x elapsed=0:07:05.84    \nframe=  577 fps=1.4 q=10.0 size=       1KiB time=00:00:04.80 bitrate=   0.9kbits/s speed=0.0113x elapsed=0:07:06.40    \nframe=  579 fps=1.4 q=23.0 size=       1KiB time=00:00:04.81 bitrate=   0.9kbits/s speed=0.0113x elapsed=0:07:06.97    \nframe=  581 fps=1.4 q=24.0 size=       1KiB time=00:00:04.83 bitrate=   0.9kbits/s speed=0.0113x elapsed=0:07:07.55    \nframe=  581 fps=1.4 q=24.0 size=       1KiB time=00:00:04.83 bitrate=   0.9kbits/s speed=0.0113x elapsed=0:07:08.11    \nframe=  581 fps=1.4 q=24.0 size=       1KiB time=00:00:04.83 bitrate=   0.9kbits/s speed=0.0113x elapsed=0:07:08.66    \nframe=  583 fps=1.4 q=23.0 size=       1KiB time=00:00:04.85 bitrate=   0.9kbits/s speed=0.0113x elapsed=0:07:09.23    \nframe=  585 fps=1.4 q=27.0 size=       1KiB time=00:00:04.86 bitrate=   0.9kbits/s speed=0.0113x elapsed=0:07:09.80    \nframe=  585 fps=1.4 q=27.0 size=       1KiB time=00:00:04.86 bitrate=   0.9kbits/s speed=0.0113x elapsed=0:07:10.35    \nframe=  585 fps=1.4 q=27.0 size=       1KiB time=00:00:04.86 bitrate=   0.9kbits/s speed=0.0113x elapsed=0:07:10.91    \nframe=  585 fps=1.4 q=27.0 size=       1KiB time=00:00:04.86 bitrate=   0.9kbits/s speed=0.0113x elapsed=0:07:11.47    \nframe=  585 fps=1.4 q=27.0 size=       1KiB time=00:00:04.86 bitrate=   0.9kbits/s speed=0.0113x elapsed=0:07:12.02    \nframe=  587 fps=1.4 q=23.0 size=       1KiB time=00:00:04.88 bitrate=   0.9kbits/s speed=0.0113x elapsed=0:07:12.59    \nframe=  589 fps=1.4 q=24.0 size=       1KiB time=00:00:04.90 bitrate=   0.9kbits/s speed=0.0113x elapsed=0:07:13.15    \nframe=  589 fps=1.4 q=24.0 size=       1KiB time=00:00:04.90 bitrate=   0.9kbits/s speed=0.0113x elapsed=0:07:13.71    \nframe=  591 fps=1.4 q=23.0 size=       1KiB time=00:00:04.91 bitrate=   0.9kbits/s speed=0.0113x elapsed=0:07:14.29    \n[out#0/matroska @ 000001dadfef90c0] video:627KiB audio:0KiB subtitle:0KiB other streams:0KiB global headers:0KiB muxing overhead: 0.513626%\nframe=  600 fps=1.4 q=27.0 Lsize=     630KiB time=00:00:04.99 bitrate=1033.7kbits/s speed=0.0115x elapsed=0:07:14.55    \n",
  "seconds": 436.47680377960205,
  "probe_out": {}
}